STARTFONT 2.1
FONT -FontForge-Archivo Narrow-Bold-R-Normal--18-170-75-75-P-87-ISO10646-1
SIZE 17 75 75
FONTBOUNDINGBOX 20 23 -3 -5
COMMENT "Generated by fontforge, http://fontforge.sourceforge.net"
COMMENT "Copyright (c) 2012, Omnibus-Type (www.omnibus-type.com|omnibus.type@gmail.com),with Reserved Font Name: Archivo"
STARTPROPERTIES 40
FOUNDRY "FontForge"
FAMILY_NAME "Archivo Narrow"
WEIGHT_NAME "Bold"
SLANT "R"
SETWIDTH_NAME "Normal"
ADD_STYLE_NAME ""
PIXEL_SIZE 18
POINT_SIZE 170
RESOLUTION_X 75
RESOLUTION_Y 75
SPACING "P"
AVERAGE_WIDTH 87
CHARSET_REGISTRY "ISO10646"
CHARSET_ENCODING "1"
FONTNAME_REGISTRY ""
CHARSET_COLLECTIONS "ISO8859-2 ISO8859-9 ISO8859-4 ISO10646-1"
FONT_NAME "ArchivoNarrow-Bold"
FACE_NAME "Archivo Narrow Bold"
COPYRIGHT "Copyright (c) 2012, Omnibus-Type (www.omnibus-type.com|omnibus.type@gmail.com),with Reserved Font Name: Archivo"
FONT_VERSION "1.002; ttfautohint (v0.8)"
FONT_ASCENT 14
FONT_DESCENT 4
UNDERLINE_POSITION -1
UNDERLINE_THICKNESS 1
X_HEIGHT 9
CAP_HEIGHT 12
RAW_ASCENT 799
RAW_DESCENT 200
NORM_SPACE 4
RELATIVE_WEIGHT 70
RELATIVE_SETWIDTH 50
SUPERSCRIPT_X 0
SUPERSCRIPT_Y 8
SUPERSCRIPT_SIZE 11
SUBSCRIPT_X 0
SUBSCRIPT_Y 2
SUBSCRIPT_SIZE 11
FIGURE_WIDTH 8
AVG_LOWERCASE_WIDTH 79
AVG_UPPERCASE_WIDTH 102
ENDPROPERTIES
CHARS 415
STARTCHAR nonmarkingreturn
ENCODING 13
SWIDTH 0 0
DWIDTH 0 0
BBX 1 1 0 0
BITMAP
00
ENDCHAR
STARTCHAR space
ENCODING 32
SWIDTH 228 0
DWIDTH 4 0
BBX 1 1 0 0
BITMAP
00
ENDCHAR
STARTCHAR exclam
ENCODING 33
SWIDTH 272 0
DWIDTH 5 0
BBX 3 13 1 0
BITMAP
E0
E0
E0
E0
E0
C0
40
40
40
00
E0
E0
E0
ENDCHAR
STARTCHAR quotedbl
ENCODING 34
SWIDTH 389 0
DWIDTH 7 0
BBX 5 5 1 8
BITMAP
D8
D8
D8
D8
D8
ENDCHAR
STARTCHAR numbersign
ENCODING 35
SWIDTH 456 0
DWIDTH 8 0
BBX 8 13 0 0
BITMAP
1B
12
12
7F
7F
36
24
24
FE
FE
6C
48
D8
ENDCHAR
STARTCHAR dollar
ENCODING 36
SWIDTH 456 0
DWIDTH 8 0
BBX 7 14 1 -1
BITMAP
10
10
78
FC
DC
D0
F8
3C
1E
D6
FC
78
10
10
ENDCHAR
STARTCHAR percent
ENCODING 37
SWIDTH 729 0
DWIDTH 13 0
BBX 12 13 1 0
BITMAP
70C0
9080
9980
9900
9B00
F600
7400
0DE0
0920
1930
3120
2120
61E0
ENDCHAR
STARTCHAR ampersand
ENCODING 38
SWIDTH 591 0
DWIDTH 11 0
BBX 9 13 1 0
BITMAP
3C00
FE00
C300
C300
C000
7B80
7B80
C300
C300
C300
C700
FE00
3C00
ENDCHAR
STARTCHAR quotesingle
ENCODING 39
SWIDTH 194 0
DWIDTH 4 0
BBX 2 5 1 8
BITMAP
C0
C0
C0
C0
C0
ENDCHAR
STARTCHAR parenleft
ENCODING 40
SWIDTH 272 0
DWIDTH 5 0
BBX 4 16 1 -3
BITMAP
30
60
60
C0
C0
C0
C0
C0
C0
C0
C0
C0
C0
60
60
30
ENDCHAR
STARTCHAR parenright
ENCODING 41
SWIDTH 272 0
DWIDTH 5 0
BBX 4 16 0 -3
BITMAP
C0
60
60
30
30
30
30
30
30
30
30
30
30
60
60
C0
ENDCHAR
STARTCHAR asterisk
ENCODING 42
SWIDTH 318 0
DWIDTH 6 0
BBX 6 6 0 7
BITMAP
30
E8
7C
7C
E8
30
ENDCHAR
STARTCHAR plus
ENCODING 43
SWIDTH 479 0
DWIDTH 9 0
BBX 7 10 1 0
BITMAP
30
30
30
30
FE
FE
30
30
30
30
ENDCHAR
STARTCHAR comma
ENCODING 44
SWIDTH 228 0
DWIDTH 4 0
BBX 2 6 1 -3
BITMAP
C0
C0
C0
40
C0
80
ENDCHAR
STARTCHAR hyphen
ENCODING 45
SWIDTH 272 0
DWIDTH 5 0
BBX 5 2 0 4
BITMAP
F8
F8
ENDCHAR
STARTCHAR period
ENCODING 46
SWIDTH 228 0
DWIDTH 4 0
BBX 2 3 1 0
BITMAP
C0
C0
C0
ENDCHAR
STARTCHAR slash
ENCODING 47
SWIDTH 228 0
DWIDTH 4 0
BBX 4 14 0 -1
BITMAP
30
30
30
20
20
20
60
60
60
40
40
40
C0
C0
ENDCHAR
STARTCHAR zero
ENCODING 48
SWIDTH 444 0
DWIDTH 8 0
BBX 6 13 1 0
BITMAP
78
FC
CC
CC
CC
CC
CC
CC
CC
CC
CC
FC
78
ENDCHAR
STARTCHAR one
ENCODING 49
SWIDTH 444 0
DWIDTH 8 0
BBX 6 13 1 0
BITMAP
10
F0
F0
30
30
30
30
30
30
30
30
FC
FC
ENDCHAR
STARTCHAR two
ENCODING 50
SWIDTH 444 0
DWIDTH 8 0
BBX 6 13 1 0
BITMAP
78
FC
CC
CC
CC
0C
1C
38
70
E0
C0
FC
FC
ENDCHAR
STARTCHAR three
ENCODING 51
SWIDTH 456 0
DWIDTH 8 0
BBX 6 13 1 0
BITMAP
78
FC
CC
CC
0C
38
38
0C
0C
CC
CC
FC
78
ENDCHAR
STARTCHAR four
ENCODING 52
SWIDTH 444 0
DWIDTH 8 0
BBX 7 13 0 0
BITMAP
0C
1C
1C
3C
3C
6C
6C
CC
FE
FE
0C
0C
0C
ENDCHAR
STARTCHAR five
ENCODING 53
SWIDTH 456 0
DWIDTH 8 0
BBX 6 13 1 0
BITMAP
FC
FC
C0
C0
F8
FC
CC
0C
0C
CC
CC
FC
78
ENDCHAR
STARTCHAR six
ENCODING 54
SWIDTH 456 0
DWIDTH 8 0
BBX 6 13 1 0
BITMAP
78
FC
CC
CC
C0
F8
FC
CC
CC
CC
CC
FC
78
ENDCHAR
STARTCHAR seven
ENCODING 55
SWIDTH 456 0
DWIDTH 8 0
BBX 6 13 1 0
BITMAP
FC
FC
0C
1C
18
38
30
30
70
60
60
60
60
ENDCHAR
STARTCHAR eight
ENCODING 56
SWIDTH 456 0
DWIDTH 8 0
BBX 6 13 1 0
BITMAP
78
FC
CC
CC
CC
78
FC
CC
CC
CC
CC
FC
78
ENDCHAR
STARTCHAR nine
ENCODING 57
SWIDTH 456 0
DWIDTH 8 0
BBX 6 13 1 0
BITMAP
78
FC
CC
CC
CC
CC
FC
7C
0C
CC
CC
FC
78
ENDCHAR
STARTCHAR colon
ENCODING 58
SWIDTH 272 0
DWIDTH 5 0
BBX 2 10 1 0
BITMAP
C0
C0
C0
00
00
00
00
C0
C0
C0
ENDCHAR
STARTCHAR semicolon
ENCODING 59
SWIDTH 272 0
DWIDTH 5 0
BBX 2 13 1 -3
BITMAP
C0
C0
C0
00
00
00
00
C0
C0
C0
40
C0
80
ENDCHAR
STARTCHAR less
ENCODING 60
SWIDTH 479 0
DWIDTH 9 0
BBX 7 10 1 0
BITMAP
02
0E
3E
78
E0
C0
F0
3C
0E
02
ENDCHAR
STARTCHAR equal
ENCODING 61
SWIDTH 479 0
DWIDTH 9 0
BBX 7 6 1 2
BITMAP
FE
FE
00
00
FE
FE
ENDCHAR
STARTCHAR greater
ENCODING 62
SWIDTH 479 0
DWIDTH 9 0
BBX 7 10 1 0
BITMAP
80
C0
F0
3C
0E
06
1E
78
E0
80
ENDCHAR
STARTCHAR question
ENCODING 63
SWIDTH 500 0
DWIDTH 9 0
BBX 7 13 1 0
BITMAP
3C
FE
C6
C6
06
0E
1C
18
18
00
18
18
18
ENDCHAR
STARTCHAR at
ENCODING 64
SWIDTH 799 0
DWIDTH 14 0
BBX 14 16 0 -3
BITMAP
07C0
1FF0
3838
6388
67CC
44CC
40C4
C3C4
C7C4
4CCC
4CC8
4FF8
6770
2000
1840
0FC0
ENDCHAR
STARTCHAR A
ENCODING 65
SWIDTH 591 0
DWIDTH 11 0
BBX 11 13 0 0
BITMAP
0E00
0E00
1F00
1B00
1B00
3180
3180
3180
7FC0
7FC0
60C0
E0E0
C060
ENDCHAR
STARTCHAR B
ENCODING 66
SWIDTH 555 0
DWIDTH 10 0
BBX 9 13 1 0
BITMAP
FE00
FF00
C300
C300
C300
FE00
FF00
C380
C180
C180
C380
FF00
FE00
ENDCHAR
STARTCHAR C
ENCODING 67
SWIDTH 555 0
DWIDTH 10 0
BBX 9 13 1 0
BITMAP
3E00
7F00
E380
C180
C180
C000
C000
C000
C180
C180
E380
7F00
3E00
ENDCHAR
STARTCHAR D
ENCODING 68
SWIDTH 555 0
DWIDTH 10 0
BBX 9 13 1 0
BITMAP
FC00
FF00
C300
C380
C180
C180
C180
C180
C180
C380
C300
FF00
FC00
ENDCHAR
STARTCHAR E
ENCODING 69
SWIDTH 500 0
DWIDTH 9 0
BBX 8 13 1 0
BITMAP
FF
FF
C0
C0
C0
FE
FE
C0
C0
C0
C0
FF
FF
ENDCHAR
STARTCHAR F
ENCODING 70
SWIDTH 444 0
DWIDTH 8 0
BBX 7 13 1 0
BITMAP
FE
FE
C0
C0
C0
C0
FC
FC
C0
C0
C0
C0
C0
ENDCHAR
STARTCHAR G
ENCODING 71
SWIDTH 555 0
DWIDTH 10 0
BBX 9 13 1 0
BITMAP
3E00
7F00
E380
C180
C000
C000
CF80
CF80
C180
C180
E380
7F80
3E80
ENDCHAR
STARTCHAR H
ENCODING 72
SWIDTH 500 0
DWIDTH 9 0
BBX 8 13 1 0
BITMAP
C3
C3
C3
C3
C3
FF
FF
C3
C3
C3
C3
C3
C3
ENDCHAR
STARTCHAR I
ENCODING 73
SWIDTH 166 0
DWIDTH 3 0
BBX 2 13 1 0
BITMAP
C0
C0
C0
C0
C0
C0
C0
C0
C0
C0
C0
C0
C0
ENDCHAR
STARTCHAR J
ENCODING 74
SWIDTH 456 0
DWIDTH 8 0
BBX 7 13 1 0
BITMAP
06
06
06
06
06
06
06
06
06
C6
E6
7E
3C
ENDCHAR
STARTCHAR K
ENCODING 75
SWIDTH 555 0
DWIDTH 10 0
BBX 9 13 1 0
BITMAP
C180
C380
C700
CE00
DC00
F800
FC00
EE00
C600
C700
C300
C380
C180
ENDCHAR
STARTCHAR L
ENCODING 76
SWIDTH 500 0
DWIDTH 9 0
BBX 8 13 1 0
BITMAP
C0
C0
C0
C0
C0
C0
C0
C0
C0
C0
C0
FF
FF
ENDCHAR
STARTCHAR M
ENCODING 77
SWIDTH 611 0
DWIDTH 11 0
BBX 10 13 1 0
BITMAP
C0C0
C0C0
E1C0
E1C0
F3C0
F3C0
DEC0
DEC0
CCC0
CCC0
C0C0
C0C0
C0C0
ENDCHAR
STARTCHAR N
ENCODING 78
SWIDTH 555 0
DWIDTH 10 0
BBX 9 13 1 0
BITMAP
C180
E180
E180
F180
F180
D980
D980
CD80
CD80
C780
C780
C380
C380
ENDCHAR
STARTCHAR O
ENCODING 79
SWIDTH 555 0
DWIDTH 10 0
BBX 9 13 1 0
BITMAP
3E00
7F00
E380
C180
C180
C180
C180
C180
C180
C180
E380
7F00
3E00
ENDCHAR
STARTCHAR P
ENCODING 80
SWIDTH 500 0
DWIDTH 9 0
BBX 8 13 1 0
BITMAP
FE
FF
C3
C3
C3
C3
FF
FC
C0
C0
C0
C0
C0
ENDCHAR
STARTCHAR Q
ENCODING 81
SWIDTH 555 0
DWIDTH 10 0
BBX 9 15 1 -2
BITMAP
3E00
7F00
E380
C180
C180
C180
C180
C180
C180
C180
E380
7F00
3E00
0700
0380
ENDCHAR
STARTCHAR R
ENCODING 82
SWIDTH 555 0
DWIDTH 10 0
BBX 9 13 1 0
BITMAP
FE00
FF00
C380
C180
C180
C380
FF00
FE00
C600
C700
C300
C380
C180
ENDCHAR
STARTCHAR S
ENCODING 83
SWIDTH 444 0
DWIDTH 8 0
BBX 7 13 1 0
BITMAP
7C
FE
C6
C0
C0
F0
7C
1E
06
C6
C6
FE
7C
ENDCHAR
STARTCHAR T
ENCODING 84
SWIDTH 500 0
DWIDTH 9 0
BBX 8 13 1 0
BITMAP
FF
FF
18
18
18
18
18
18
18
18
18
18
18
ENDCHAR
STARTCHAR U
ENCODING 85
SWIDTH 500 0
DWIDTH 9 0
BBX 8 13 1 0
BITMAP
C3
C3
C3
C3
C3
C3
C3
C3
C3
C3
E7
7E
3C
ENDCHAR
STARTCHAR V
ENCODING 86
SWIDTH 500 0
DWIDTH 9 0
BBX 8 13 1 0
BITMAP
C3
C3
C3
C3
E7
66
66
66
7C
3C
3C
3C
18
ENDCHAR
STARTCHAR W
ENCODING 87
SWIDTH 833 0
DWIDTH 15 0
BBX 14 13 1 0
BITMAP
C30C
C30C
C30C
E79C
6798
6798
6CD8
7CF8
3CF0
3870
3870
3870
1020
ENDCHAR
STARTCHAR X
ENCODING 88
SWIDTH 500 0
DWIDTH 9 0
BBX 8 13 1 0
BITMAP
C3
C3
E7
66
7E
3C
3C
3C
7E
66
E7
C3
C3
ENDCHAR
STARTCHAR Y
ENCODING 89
SWIDTH 500 0
DWIDTH 9 0
BBX 8 13 1 0
BITMAP
C3
C3
C3
66
7E
3C
18
18
18
18
18
18
18
ENDCHAR
STARTCHAR Z
ENCODING 90
SWIDTH 500 0
DWIDTH 9 0
BBX 8 13 1 0
BITMAP
FF
FF
0E
0C
1C
18
38
30
70
60
E0
FF
FF
ENDCHAR
STARTCHAR bracketleft
ENCODING 91
SWIDTH 272 0
DWIDTH 5 0
BBX 3 16 1 -3
BITMAP
E0
E0
C0
C0
C0
C0
C0
C0
C0
C0
C0
C0
C0
C0
E0
E0
ENDCHAR
STARTCHAR backslash
ENCODING 92
SWIDTH 228 0
DWIDTH 4 0
BBX 4 14 0 -1
BITMAP
C0
C0
C0
40
40
60
60
60
20
20
20
30
30
30
ENDCHAR
STARTCHAR bracketright
ENCODING 93
SWIDTH 272 0
DWIDTH 5 0
BBX 4 16 0 -3
BITMAP
F0
F0
30
30
30
30
30
30
30
30
30
30
30
30
F0
F0
ENDCHAR
STARTCHAR asciicircum
ENCODING 94
SWIDTH 479 0
DWIDTH 9 0
BBX 7 7 1 6
BITMAP
38
38
78
6C
6C
CC
C6
ENDCHAR
STARTCHAR underscore
ENCODING 95
SWIDTH 456 0
DWIDTH 8 0
BBX 8 2 0 -2
BITMAP
FF
FF
ENDCHAR
STARTCHAR grave
ENCODING 96
SWIDTH 272 0
DWIDTH 5 0
BBX 4 2 0 11
BITMAP
E0
30
ENDCHAR
STARTCHAR a
ENCODING 97
SWIDTH 500 0
DWIDTH 9 0
BBX 8 10 1 0
BITMAP
7C
FE
C6
06
7E
FE
C6
C6
FF
73
ENDCHAR
STARTCHAR b
ENCODING 98
SWIDTH 444 0
DWIDTH 8 0
BBX 7 13 1 0
BITMAP
C0
C0
C0
DC
FE
E6
C6
C6
C6
C6
E6
FE
DC
ENDCHAR
STARTCHAR c
ENCODING 99
SWIDTH 388 0
DWIDTH 7 0
BBX 6 10 1 0
BITMAP
78
FC
CC
CC
C0
C0
CC
CC
FC
78
ENDCHAR
STARTCHAR d
ENCODING 100
SWIDTH 444 0
DWIDTH 8 0
BBX 7 13 1 0
BITMAP
06
06
06
76
FE
CE
C6
C6
C6
C6
C6
FE
76
ENDCHAR
STARTCHAR e
ENCODING 101
SWIDTH 388 0
DWIDTH 7 0
BBX 6 10 1 0
BITMAP
78
FC
CC
CC
FC
FC
C0
CC
FC
78
ENDCHAR
STARTCHAR f
ENCODING 102
SWIDTH 333 0
DWIDTH 6 0
BBX 5 13 1 0
BITMAP
38
78
60
F0
F0
60
60
60
60
60
60
60
60
ENDCHAR
STARTCHAR g
ENCODING 103
SWIDTH 500 0
DWIDTH 9 0
BBX 9 15 0 -3
BITMAP
0180
0180
3F00
7E00
6300
6300
7F00
3E00
6000
6000
7F00
7F80
C180
FF80
7F00
ENDCHAR
STARTCHAR h
ENCODING 104
SWIDTH 444 0
DWIDTH 8 0
BBX 7 13 1 0
BITMAP
C0
C0
C0
DC
FE
E6
C6
C6
C6
C6
C6
C6
C6
ENDCHAR
STARTCHAR i
ENCODING 105
SWIDTH 166 0
DWIDTH 3 0
BBX 2 13 1 0
BITMAP
C0
C0
00
C0
C0
C0
C0
C0
C0
C0
C0
C0
C0
ENDCHAR
STARTCHAR j
ENCODING 106
SWIDTH 166 0
DWIDTH 3 0
BBX 4 16 -1 -3
BITMAP
30
30
00
30
30
30
30
30
30
30
30
30
30
30
F0
E0
ENDCHAR
STARTCHAR k
ENCODING 107
SWIDTH 456 0
DWIDTH 8 0
BBX 7 13 1 0
BITMAP
C0
C0
C0
CE
CC
D8
F8
F0
F8
D8
CC
CC
C6
ENDCHAR
STARTCHAR l
ENCODING 108
SWIDTH 166 0
DWIDTH 3 0
BBX 2 13 1 0
BITMAP
C0
C0
C0
C0
C0
C0
C0
C0
C0
C0
C0
C0
C0
ENDCHAR
STARTCHAR m
ENCODING 109
SWIDTH 611 0
DWIDTH 11 0
BBX 10 10 1 0
BITMAP
DD80
FFC0
CCC0
CCC0
CCC0
CCC0
CCC0
CCC0
CCC0
CCC0
ENDCHAR
STARTCHAR n
ENCODING 110
SWIDTH 444 0
DWIDTH 8 0
BBX 7 10 1 0
BITMAP
DC
FE
E6
C6
C6
C6
C6
C6
C6
C6
ENDCHAR
STARTCHAR o
ENCODING 111
SWIDTH 444 0
DWIDTH 8 0
BBX 7 10 1 0
BITMAP
7C
FE
C6
C6
C6
C6
C6
C6
FE
7C
ENDCHAR
STARTCHAR p
ENCODING 112
SWIDTH 444 0
DWIDTH 8 0
BBX 7 13 1 -3
BITMAP
DC
FE
E6
C6
C6
C6
C6
E6
FE
DC
C0
C0
C0
ENDCHAR
STARTCHAR q
ENCODING 113
SWIDTH 444 0
DWIDTH 8 0
BBX 7 13 1 -3
BITMAP
76
FE
C6
C6
C6
C6
C6
C6
FE
76
06
06
06
ENDCHAR
STARTCHAR r
ENCODING 114
SWIDTH 318 0
DWIDTH 6 0
BBX 5 10 1 0
BITMAP
D8
F8
E0
C0
C0
C0
C0
C0
C0
C0
ENDCHAR
STARTCHAR s
ENCODING 115
SWIDTH 388 0
DWIDTH 7 0
BBX 6 10 1 0
BITMAP
78
FC
CC
C0
F8
7C
0C
CC
FC
78
ENDCHAR
STARTCHAR t
ENCODING 116
SWIDTH 272 0
DWIDTH 5 0
BBX 4 13 1 0
BITMAP
60
60
60
F0
F0
60
60
60
60
60
60
70
30
ENDCHAR
STARTCHAR u
ENCODING 117
SWIDTH 444 0
DWIDTH 8 0
BBX 7 10 1 0
BITMAP
C6
C6
C6
C6
C6
C6
C6
C6
FE
76
ENDCHAR
STARTCHAR v
ENCODING 118
SWIDTH 500 0
DWIDTH 9 0
BBX 8 10 1 0
BITMAP
C3
C3
C3
66
66
66
3C
3C
18
18
ENDCHAR
STARTCHAR w
ENCODING 119
SWIDTH 666 0
DWIDTH 12 0
BBX 11 10 1 0
BITMAP
C060
C060
C460
6EC0
6EC0
6EC0
6AC0
3B80
3B80
1100
ENDCHAR
STARTCHAR x
ENCODING 120
SWIDTH 388 0
DWIDTH 7 0
BBX 6 10 1 0
BITMAP
CC
CC
78
78
30
78
78
CC
CC
CC
ENDCHAR
STARTCHAR y
ENCODING 121
SWIDTH 500 0
DWIDTH 9 0
BBX 8 13 1 -3
BITMAP
C3
C3
C3
66
66
66
36
3C
1C
18
18
78
70
ENDCHAR
STARTCHAR z
ENCODING 122
SWIDTH 388 0
DWIDTH 7 0
BBX 6 10 1 0
BITMAP
FC
FC
18
38
30
70
60
E0
FC
FC
ENDCHAR
STARTCHAR braceleft
ENCODING 123
SWIDTH 318 0
DWIDTH 6 0
BBX 5 16 0 -3
BITMAP
18
38
30
30
30
30
30
E0
E0
30
30
30
30
30
38
18
ENDCHAR
STARTCHAR bar
ENCODING 124
SWIDTH 229 0
DWIDTH 4 0
BBX 2 16 1 -3
BITMAP
C0
C0
C0
C0
C0
C0
C0
C0
C0
C0
C0
C0
C0
C0
C0
C0
ENDCHAR
STARTCHAR braceright
ENCODING 125
SWIDTH 318 0
DWIDTH 6 0
BBX 5 16 0 -3
BITMAP
E0
F0
30
30
30
30
30
18
38
30
30
30
30
30
F0
E0
ENDCHAR
STARTCHAR asciitilde
ENCODING 126
SWIDTH 479 0
DWIDTH 9 0
BBX 8 3 0 4
BITMAP
71
FF
8E
ENDCHAR
STARTCHAR uni00A0
ENCODING 160
SWIDTH 228 0
DWIDTH 4 0
BBX 1 1 0 0
BITMAP
00
ENDCHAR
STARTCHAR exclamdown
ENCODING 161
SWIDTH 272 0
DWIDTH 5 0
BBX 3 13 1 -3
BITMAP
E0
E0
E0
00
40
40
40
C0
E0
E0
E0
E0
E0
ENDCHAR
STARTCHAR cent
ENCODING 162
SWIDTH 456 0
DWIDTH 8 0
BBX 7 14 1 -1
BITMAP
10
10
78
FC
DC
D6
D0
D0
D6
DC
FC
78
10
10
ENDCHAR
STARTCHAR sterling
ENCODING 163
SWIDTH 456 0
DWIDTH 8 0
BBX 8 13 0 0
BITMAP
1C
3E
77
63
60
60
FC
FC
60
60
60
FF
FF
ENDCHAR
STARTCHAR currency
ENCODING 164
SWIDTH 456 0
DWIDTH 8 0
BBX 8 9 0 2
BITMAP
59
FF
66
43
C3
C3
62
FF
7D
ENDCHAR
STARTCHAR yen
ENCODING 165
SWIDTH 456 0
DWIDTH 8 0
BBX 8 13 0 0
BITMAP
E3
67
66
76
3C
3C
FF
FF
FF
FF
18
18
18
ENDCHAR
STARTCHAR brokenbar
ENCODING 166
SWIDTH 229 0
DWIDTH 4 0
BBX 2 16 1 -3
BITMAP
C0
C0
C0
C0
C0
C0
C0
00
00
C0
C0
C0
C0
C0
C0
C0
ENDCHAR
STARTCHAR section
ENCODING 167
SWIDTH 456 0
DWIDTH 8 0
BBX 7 16 1 -3
BITMAP
78
FC
CE
C0
E0
78
DC
CE
C6
FE
7C
1C
0C
CE
FC
78
ENDCHAR
STARTCHAR dieresis
ENCODING 168
SWIDTH 272 0
DWIDTH 5 0
BBX 5 2 0 11
BITMAP
D8
D8
ENDCHAR
STARTCHAR copyright
ENCODING 169
SWIDTH 604 0
DWIDTH 11 0
BBX 11 13 0 0
BITMAP
1F00
3180
40C0
4E40
DF40
9320
9020
9020
D340
5F40
4EC0
3180
1F00
ENDCHAR
STARTCHAR ordfeminine
ENCODING 170
SWIDTH 303 0
DWIDTH 5 0
BBX 6 7 0 6
BITMAP
70
78
18
78
D8
D8
EC
ENDCHAR
STARTCHAR guillemotleft
ENCODING 171
SWIDTH 456 0
DWIDTH 8 0
BBX 8 7 0 3
BITMAP
33
36
6C
CC
6C
36
33
ENDCHAR
STARTCHAR logicalnot
ENCODING 172
SWIDTH 479 0
DWIDTH 9 0
BBX 7 5 1 4
BITMAP
FE
FE
06
06
06
ENDCHAR
STARTCHAR uni00AD
ENCODING 173
SWIDTH 272 0
DWIDTH 5 0
BBX 5 2 0 4
BITMAP
F8
F8
ENDCHAR
STARTCHAR registered
ENCODING 174
SWIDTH 604 0
DWIDTH 11 0
BBX 11 13 0 0
BITMAP
1F00
3180
40C0
5F40
DF40
9F20
9E20
9B20
DB40
5940
40C0
3180
1F00
ENDCHAR
STARTCHAR macron
ENCODING 175
SWIDTH 272 0
DWIDTH 5 0
BBX 5 2 0 11
BITMAP
F8
F8
ENDCHAR
STARTCHAR degree
ENCODING 176
SWIDTH 399 0
DWIDTH 7 0
BBX 5 6 1 7
BITMAP
70
F8
88
88
F8
70
ENDCHAR
STARTCHAR plusminus
ENCODING 177
SWIDTH 548 0
DWIDTH 10 0
BBX 8 11 1 0
BITMAP
18
18
18
FF
FF
18
18
18
00
FF
FF
ENDCHAR
STARTCHAR twosuperior
ENCODING 178
SWIDTH 272 0
DWIDTH 5 0
BBX 5 9 0 4
BITMAP
70
70
D8
10
30
20
40
F8
F8
ENDCHAR
STARTCHAR threesuperior
ENCODING 179
SWIDTH 272 0
DWIDTH 5 0
BBX 5 8 0 5
BITMAP
70
F8
D0
30
10
D8
F0
70
ENDCHAR
STARTCHAR acute
ENCODING 180
SWIDTH 272 0
DWIDTH 5 0
BBX 4 2 1 11
BITMAP
70
C0
ENDCHAR
STARTCHAR mu
ENCODING 181
SWIDTH 500 0
DWIDTH 9 0
BBX 7 13 1 -3
BITMAP
C6
C6
C6
C6
C6
C6
C6
C6
FE
F6
C0
C0
C0
ENDCHAR
STARTCHAR paragraph
ENCODING 182
SWIDTH 456 0
DWIDTH 8 0
BBX 8 16 0 -3
BITMAP
3F
7F
7A
FA
FA
FA
7A
3A
1A
1A
1A
1A
1A
1A
1A
1A
ENDCHAR
STARTCHAR periodcentered
ENCODING 183
SWIDTH 228 0
DWIDTH 4 0
BBX 2 2 1 5
BITMAP
C0
C0
ENDCHAR
STARTCHAR cedilla
ENCODING 184
SWIDTH 272 0
DWIDTH 5 0
BBX 3 4 1 -3
BITMAP
40
E0
20
E0
ENDCHAR
STARTCHAR onesuperior
ENCODING 185
SWIDTH 272 0
DWIDTH 5 0
BBX 4 7 1 6
BITMAP
40
C0
40
40
40
40
F0
ENDCHAR
STARTCHAR ordmasculine
ENCODING 186
SWIDTH 298 0
DWIDTH 5 0
BBX 5 8 0 5
BITMAP
70
78
C8
C8
C8
D8
78
70
ENDCHAR
STARTCHAR guillemotright
ENCODING 187
SWIDTH 456 0
DWIDTH 8 0
BBX 8 7 0 3
BITMAP
CC
64
36
3B
36
64
CC
ENDCHAR
STARTCHAR onequarter
ENCODING 188
SWIDTH 684 0
DWIDTH 12 0
BBX 11 13 1 0
BITMAP
40C0
C080
4100
4100
4200
4680
F480
0DC0
0940
1340
13E0
2040
6040
ENDCHAR
STARTCHAR onehalf
ENCODING 189
SWIDTH 684 0
DWIDTH 12 0
BBX 11 13 1 0
BITMAP
40C0
C080
4100
4300
4200
47C0
F560
F960
0840
10C0
1180
21E0
61E0
ENDCHAR
STARTCHAR threequarters
ENCODING 190
SWIDTH 684 0
DWIDTH 12 0
BBX 11 13 1 0
BITMAP
E0C0
F080
B100
6300
7200
B680
F480
E9C0
0940
1340
13E0
2040
6040
ENDCHAR
STARTCHAR questiondown
ENCODING 191
SWIDTH 500 0
DWIDTH 9 0
BBX 7 13 1 -3
BITMAP
30
30
30
00
30
30
70
E0
C0
C6
C6
FE
78
ENDCHAR
STARTCHAR Agrave
ENCODING 192
SWIDTH 591 0
DWIDTH 11 0
BBX 11 16 0 0
BITMAP
1800
0E00
0000
0E00
0E00
1E00
1B00
1B00
3300
3380
3180
7F80
7FC0
60C0
E0C0
C0E0
ENDCHAR
STARTCHAR Aacute
ENCODING 193
SWIDTH 591 0
DWIDTH 11 0
BBX 11 16 0 0
BITMAP
0700
0E00
0000
0E00
0E00
1F00
1B00
1B00
3180
3180
3180
7FC0
7FC0
60C0
E0E0
C060
ENDCHAR
STARTCHAR Acircumflex
ENCODING 194
SWIDTH 591 0
DWIDTH 11 0
BBX 11 17 0 0
BITMAP
0C00
0E00
1B00
0000
0E00
0E00
1E00
1B00
1B00
3300
3380
3180
7F80
7FC0
60C0
E0C0
C0E0
ENDCHAR
STARTCHAR Atilde
ENCODING 195
SWIDTH 591 0
DWIDTH 11 0
BBX 11 17 0 0
BITMAP
1900
1F00
3700
0000
0E00
0E00
1E00
1B00
1B00
3300
3380
3180
7F80
7FC0
60C0
E0C0
C0E0
ENDCHAR
STARTCHAR Adieresis
ENCODING 196
SWIDTH 591 0
DWIDTH 11 0
BBX 11 16 0 0
BITMAP
1B00
1B00
0000
0E00
0E00
1E00
1B00
1B00
3300
3380
3180
7F80
7FC0
60C0
E0C0
C0E0
ENDCHAR
STARTCHAR Aring
ENCODING 197
SWIDTH 591 0
DWIDTH 11 0
BBX 11 17 0 0
BITMAP
0C00
0A00
0A00
0C00
0E00
0E00
1E00
1B00
1B00
3300
3380
3180
7F80
7FC0
60C0
E0C0
C0E0
ENDCHAR
STARTCHAR AE
ENCODING 198
SWIDTH 819 0
DWIDTH 15 0
BBX 14 13 0 0
BITMAP
0FFC
0FFC
0F00
1B00
1B00
1BF8
31F8
3180
7F80
7FC0
60C0
C0FC
C0FC
ENDCHAR
STARTCHAR Ccedilla
ENCODING 199
SWIDTH 591 0
DWIDTH 11 0
BBX 9 16 1 -3
BITMAP
3E00
7F00
E380
C180
C180
C000
C000
C000
C180
C180
E380
7F00
3C00
0C00
0400
1C00
ENDCHAR
STARTCHAR Egrave
ENCODING 200
SWIDTH 546 0
DWIDTH 10 0
BBX 8 16 1 0
BITMAP
70
18
00
FF
FF
C0
C0
C0
FE
FE
C0
C0
C0
C0
FF
FF
ENDCHAR
STARTCHAR Eacute
ENCODING 201
SWIDTH 546 0
DWIDTH 10 0
BBX 8 16 1 0
BITMAP
0C
18
00
FF
FF
C0
C0
C0
FE
FE
C0
C0
C0
C0
FF
FF
ENDCHAR
STARTCHAR Ecircumflex
ENCODING 202
SWIDTH 546 0
DWIDTH 10 0
BBX 8 17 1 0
BITMAP
18
38
2C
40
FF
FF
C0
C0
C0
FE
FE
C0
C0
C0
C0
FF
FF
ENDCHAR
STARTCHAR Edieresis
ENCODING 203
SWIDTH 546 0
DWIDTH 10 0
BBX 8 16 1 0
BITMAP
64
64
00
FF
FF
C0
C0
C0
FE
FE
C0
C0
C0
C0
FF
FF
ENDCHAR
STARTCHAR Igrave
ENCODING 204
SWIDTH 228 0
DWIDTH 4 0
BBX 3 16 0 0
BITMAP
C0
60
00
60
60
60
60
60
60
60
60
60
60
60
60
60
ENDCHAR
STARTCHAR Iacute
ENCODING 205
SWIDTH 228 0
DWIDTH 4 0
BBX 4 16 1 0
BITMAP
70
C0
00
C0
C0
C0
C0
C0
C0
C0
C0
C0
C0
C0
C0
C0
ENDCHAR
STARTCHAR Icircumflex
ENCODING 206
SWIDTH 228 0
DWIDTH 4 0
BBX 4 17 0 0
BITMAP
60
F0
D0
00
60
60
60
60
60
60
60
60
60
60
60
60
60
ENDCHAR
STARTCHAR Idieresis
ENCODING 207
SWIDTH 228 0
DWIDTH 4 0
BBX 5 16 0 0
BITMAP
98
98
00
60
60
60
60
60
60
60
60
60
60
60
60
60
ENDCHAR
STARTCHAR Eth
ENCODING 208
SWIDTH 591 0
DWIDTH 11 0
BBX 10 13 0 0
BITMAP
7E00
7F80
6180
61C0
60C0
FCC0
FCC0
60C0
60C0
61C0
6180
7F80
7E00
ENDCHAR
STARTCHAR Ntilde
ENCODING 209
SWIDTH 591 0
DWIDTH 11 0
BBX 9 17 1 0
BITMAP
3200
3E00
6E00
0000
C180
E180
E180
F180
F980
D980
DD80
CD80
CF80
C780
C780
C380
C380
ENDCHAR
STARTCHAR Ograve
ENCODING 210
SWIDTH 638 0
DWIDTH 11 0
BBX 10 16 1 0
BITMAP
3800
0C00
0000
3E00
7F00
E380
C180
C1C0
C1C0
C1C0
C1C0
C1C0
C180
E380
7F00
3E00
ENDCHAR
STARTCHAR Oacute
ENCODING 211
SWIDTH 638 0
DWIDTH 11 0
BBX 10 16 1 0
BITMAP
0600
0C00
0000
3E00
7F00
E380
C180
C1C0
C1C0
C1C0
C1C0
C1C0
C180
E380
7F00
3E00
ENDCHAR
STARTCHAR Ocircumflex
ENCODING 212
SWIDTH 638 0
DWIDTH 11 0
BBX 10 17 1 0
BITMAP
0C00
1C00
3600
0000
3E00
7F00
E380
C180
C1C0
C1C0
C1C0
C1C0
C1C0
C180
E380
7F00
3E00
ENDCHAR
STARTCHAR Otilde
ENCODING 213
SWIDTH 638 0
DWIDTH 11 0
BBX 10 17 1 0
BITMAP
1900
3F00
2600
0000
3E00
7F00
E380
C180
C1C0
C1C0
C1C0
C1C0
C1C0
C180
E380
7F00
3E00
ENDCHAR
STARTCHAR Odieresis
ENCODING 214
SWIDTH 638 0
DWIDTH 11 0
BBX 10 17 1 0
BITMAP
3600
3600
0000
0000
3E00
7F00
E380
C180
C1C0
C1C0
C1C0
C1C0
C1C0
C180
E380
7F00
3E00
ENDCHAR
STARTCHAR multiply
ENCODING 215
SWIDTH 479 0
DWIDTH 9 0
BBX 7 8 1 1
BITMAP
82
C6
EC
78
38
7C
EE
C6
ENDCHAR
STARTCHAR Oslash
ENCODING 216
SWIDTH 638 0
DWIDTH 11 0
BBX 10 13 1 0
BITMAP
3EC0
7F80
E380
C3C0
C7C0
C5C0
CDC0
D9C0
D1C0
F180
E380
7F00
FE00
ENDCHAR
STARTCHAR Ugrave
ENCODING 217
SWIDTH 591 0
DWIDTH 11 0
BBX 9 16 1 0
BITMAP
3000
1C00
0000
C380
C380
C380
C380
C380
C380
C380
C380
C380
C380
E300
7F00
3E00
ENDCHAR
STARTCHAR Uacute
ENCODING 218
SWIDTH 591 0
DWIDTH 11 0
BBX 8 16 1 0
BITMAP
0E
18
00
C3
C3
C3
C3
C3
C3
C3
C3
C3
C3
C3
7E
3C
ENDCHAR
STARTCHAR Ucircumflex
ENCODING 219
SWIDTH 591 0
DWIDTH 11 0
BBX 9 17 1 0
BITMAP
1800
1C00
3600
0000
C380
C380
C380
C380
C380
C380
C380
C380
C380
C380
E300
7F00
3E00
ENDCHAR
STARTCHAR Udieresis
ENCODING 220
SWIDTH 591 0
DWIDTH 11 0
BBX 9 17 1 0
BITMAP
3600
3600
0000
0000
C380
C380
C380
C380
C380
C380
C380
C380
C380
C380
E300
7F00
3E00
ENDCHAR
STARTCHAR Yacute
ENCODING 221
SWIDTH 546 0
DWIDTH 10 0
BBX 10 16 0 0
BITMAP
0600
0C00
0000
E1C0
6180
6380
3300
3300
3E00
1E00
1C00
0C00
0C00
0C00
0C00
0C00
ENDCHAR
STARTCHAR Thorn
ENCODING 222
SWIDTH 546 0
DWIDTH 10 0
BBX 8 13 1 0
BITMAP
C0
C0
C0
FE
FF
C3
C3
C3
FF
FE
C0
C0
C0
ENDCHAR
STARTCHAR germandbls
ENCODING 223
SWIDTH 500 0
DWIDTH 9 0
BBX 8 13 1 0
BITMAP
7C
FE
C6
C6
C6
DC
DE
C6
C6
C7
C6
DE
DC
ENDCHAR
STARTCHAR agrave
ENCODING 224
SWIDTH 456 0
DWIDTH 8 0
BBX 8 13 0 0
BITMAP
70
18
00
3C
7E
66
06
3E
7E
E6
E6
FF
73
ENDCHAR
STARTCHAR aacute
ENCODING 225
SWIDTH 456 0
DWIDTH 8 0
BBX 8 13 0 0
BITMAP
0C
18
00
3C
7E
66
06
3E
7E
E6
E6
FF
73
ENDCHAR
STARTCHAR acircumflex
ENCODING 226
SWIDTH 456 0
DWIDTH 8 0
BBX 8 13 0 0
BITMAP
18
3C
40
3C
7E
66
06
3E
7E
E6
E6
FF
73
ENDCHAR
STARTCHAR atilde
ENCODING 227
SWIDTH 456 0
DWIDTH 8 0
BBX 8 13 0 0
BITMAP
7E
7C
00
3C
7E
66
06
3E
7E
E6
E6
FF
73
ENDCHAR
STARTCHAR adieresis
ENCODING 228
SWIDTH 456 0
DWIDTH 8 0
BBX 8 13 0 0
BITMAP
64
64
00
3C
7E
66
06
3E
7E
E6
E6
FF
73
ENDCHAR
STARTCHAR aring
ENCODING 229
SWIDTH 456 0
DWIDTH 8 0
BBX 8 13 0 0
BITMAP
3C
38
00
3C
7E
66
06
3E
7E
E6
E6
FF
73
ENDCHAR
STARTCHAR ae
ENCODING 230
SWIDTH 729 0
DWIDTH 13 0
BBX 11 10 1 0
BITMAP
7BC0
FFE0
CE60
0E60
7FE0
FFE0
CE00
CE60
FFE0
73C0
ENDCHAR
STARTCHAR ccedilla
ENCODING 231
SWIDTH 456 0
DWIDTH 8 0
BBX 7 13 1 -3
BITMAP
78
FC
CC
CE
C0
C0
CE
CC
7C
38
38
08
38
ENDCHAR
STARTCHAR egrave
ENCODING 232
SWIDTH 456 0
DWIDTH 8 0
BBX 7 13 1 0
BITMAP
60
30
00
78
FC
CC
CC
FE
FE
C0
CE
FC
78
ENDCHAR
STARTCHAR eacute
ENCODING 233
SWIDTH 456 0
DWIDTH 8 0
BBX 7 13 1 0
BITMAP
1C
30
00
78
FC
CC
CC
FE
FE
C0
CE
FC
78
ENDCHAR
STARTCHAR ecircumflex
ENCODING 234
SWIDTH 456 0
DWIDTH 8 0
BBX 7 13 1 0
BITMAP
30
78
04
78
FC
CC
CC
FE
FE
C0
CE
FC
78
ENDCHAR
STARTCHAR edieresis
ENCODING 235
SWIDTH 456 0
DWIDTH 8 0
BBX 7 13 1 0
BITMAP
4C
4C
00
78
FC
CC
CC
FE
FE
C0
CE
FC
78
ENDCHAR
STARTCHAR igrave
ENCODING 236
SWIDTH 228 0
DWIDTH 4 0
BBX 3 13 0 0
BITMAP
C0
60
00
60
60
60
60
60
60
60
60
60
60
ENDCHAR
STARTCHAR iacute
ENCODING 237
SWIDTH 228 0
DWIDTH 4 0
BBX 4 13 1 0
BITMAP
70
C0
00
C0
C0
C0
C0
C0
C0
C0
C0
C0
C0
ENDCHAR
STARTCHAR icircumflex
ENCODING 238
SWIDTH 228 0
DWIDTH 4 0
BBX 4 13 0 0
BITMAP
60
F0
90
60
60
60
60
60
60
60
60
60
60
ENDCHAR
STARTCHAR idieresis
ENCODING 239
SWIDTH 228 0
DWIDTH 4 0
BBX 5 13 0 0
BITMAP
98
98
00
60
60
60
60
60
60
60
60
60
60
ENDCHAR
STARTCHAR eth
ENCODING 240
SWIDTH 500 0
DWIDTH 9 0
BBX 7 13 1 0
BITMAP
70
7E
0C
7C
FE
C6
C6
C6
C6
C6
C6
FE
7C
ENDCHAR
STARTCHAR ntilde
ENCODING 241
SWIDTH 500 0
DWIDTH 9 0
BBX 7 13 1 0
BITMAP
7E
FC
00
DC
FE
E6
C6
C6
C6
C6
C6
C6
C6
ENDCHAR
STARTCHAR ograve
ENCODING 242
SWIDTH 500 0
DWIDTH 9 0
BBX 7 13 1 0
BITMAP
70
18
00
7C
FE
C6
C6
C6
C6
C6
C6
FE
7C
ENDCHAR
STARTCHAR oacute
ENCODING 243
SWIDTH 500 0
DWIDTH 9 0
BBX 7 13 1 0
BITMAP
1C
30
00
7C
FE
C6
C6
C6
C6
C6
C6
FE
7C
ENDCHAR
STARTCHAR ocircumflex
ENCODING 244
SWIDTH 500 0
DWIDTH 9 0
BBX 7 13 1 0
BITMAP
38
6C
00
7C
FE
C6
C6
C6
C6
C6
C6
FE
7C
ENDCHAR
STARTCHAR otilde
ENCODING 245
SWIDTH 500 0
DWIDTH 9 0
BBX 7 13 1 0
BITMAP
7E
FC
00
7C
FE
C6
C6
C6
C6
C6
C6
FE
7C
ENDCHAR
STARTCHAR odieresis
ENCODING 246
SWIDTH 500 0
DWIDTH 9 0
BBX 7 13 1 0
BITMAP
6C
6C
00
7C
FE
C6
C6
C6
C6
C6
C6
FE
7C
ENDCHAR
STARTCHAR divide
ENCODING 247
SWIDTH 548 0
DWIDTH 10 0
BBX 8 8 1 1
BITMAP
18
18
00
FF
FF
00
18
18
ENDCHAR
STARTCHAR oslash
ENCODING 248
SWIDTH 500 0
DWIDTH 9 0
BBX 7 11 1 0
BITMAP
02
7E
FE
CE
CE
D6
D6
E6
E6
FE
FC
ENDCHAR
STARTCHAR ugrave
ENCODING 249
SWIDTH 500 0
DWIDTH 9 0
BBX 7 13 1 0
BITMAP
70
18
00
C6
C6
C6
C6
C6
C6
C6
C6
FE
76
ENDCHAR
STARTCHAR uacute
ENCODING 250
SWIDTH 500 0
DWIDTH 9 0
BBX 7 13 1 0
BITMAP
1C
30
00
C6
C6
C6
C6
C6
C6
C6
C6
FE
76
ENDCHAR
STARTCHAR ucircumflex
ENCODING 251
SWIDTH 500 0
DWIDTH 9 0
BBX 7 13 1 0
BITMAP
38
28
6C
C6
C6
C6
C6
C6
C6
C6
C6
FE
76
ENDCHAR
STARTCHAR udieresis
ENCODING 252
SWIDTH 500 0
DWIDTH 9 0
BBX 7 13 1 0
BITMAP
6C
6C
00
C6
C6
C6
C6
C6
C6
C6
C6
FE
76
ENDCHAR
STARTCHAR yacute
ENCODING 253
SWIDTH 456 0
DWIDTH 8 0
BBX 8 16 0 -3
BITMAP
0E
18
00
E3
63
66
66
36
36
3C
1C
1C
18
18
78
70
ENDCHAR
STARTCHAR thorn
ENCODING 254
SWIDTH 500 0
DWIDTH 9 0
BBX 7 16 1 -3
BITMAP
C0
C0
C0
DC
FE
E6
C6
C6
C6
C6
E6
FE
DC
C0
C0
C0
ENDCHAR
STARTCHAR ydieresis
ENCODING 255
SWIDTH 456 0
DWIDTH 8 0
BBX 8 16 0 -3
BITMAP
26
26
00
E3
63
66
66
36
36
3C
1C
1C
18
18
78
70
ENDCHAR
STARTCHAR Amacron
ENCODING 256
SWIDTH 591 0
DWIDTH 11 0
BBX 11 16 0 0
BITMAP
1F00
1F00
0000
0E00
0E00
1E00
1B00
1B00
3300
3380
3180
7F80
7FC0
60C0
E0C0
C0E0
ENDCHAR
STARTCHAR amacron
ENCODING 257
SWIDTH 456 0
DWIDTH 8 0
BBX 8 13 0 0
BITMAP
3C
3C
00
3C
7E
66
06
3E
7E
E6
E6
FF
73
ENDCHAR
STARTCHAR Abreve
ENCODING 258
SWIDTH 591 0
DWIDTH 11 0
BBX 11 17 0 0
BITMAP
1300
1F00
0E00
0000
0E00
0E00
1E00
1B00
1B00
3300
3380
3180
7F80
7FC0
60C0
E0C0
C0E0
ENDCHAR
STARTCHAR abreve
ENCODING 259
SWIDTH 456 0
DWIDTH 8 0
BBX 8 13 0 0
BITMAP
7C
38
00
3C
7E
66
66
3E
7E
E6
E6
FF
73
ENDCHAR
STARTCHAR Aogonek
ENCODING 260
SWIDTH 591 0
DWIDTH 11 0
BBX 11 16 0 -3
BITMAP
0E00
0E00
1E00
1B00
1B00
3300
3380
3180
7F80
7FC0
60C0
E0C0
C0E0
0040
00C0
0060
ENDCHAR
STARTCHAR aogonek
ENCODING 261
SWIDTH 456 0
DWIDTH 8 0
BBX 9 13 0 -3
BITMAP
3C00
7E00
6600
3E00
7E00
E600
C600
E600
7F00
7300
0300
0300
0380
ENDCHAR
STARTCHAR Cacute
ENCODING 262
SWIDTH 591 0
DWIDTH 11 0
BBX 9 16 1 0
BITMAP
0600
1C00
0000
3E00
7F00
E380
C180
C180
C000
C000
C000
C180
C180
E380
7F00
3E00
ENDCHAR
STARTCHAR cacute
ENCODING 263
SWIDTH 456 0
DWIDTH 8 0
BBX 7 13 1 0
BITMAP
1C
30
00
78
FC
CC
CE
C0
C0
CE
CC
FC
78
ENDCHAR
STARTCHAR Ccircumflex
ENCODING 264
SWIDTH 591 0
DWIDTH 11 0
BBX 9 17 1 0
BITMAP
0800
1C00
3600
0000
3E00
7F00
E380
C380
C180
C000
C000
C000
C180
C180
E380
7F00
3E00
ENDCHAR
STARTCHAR ccircumflex
ENCODING 265
SWIDTH 456 0
DWIDTH 8 0
BBX 7 13 1 0
BITMAP
38
68
04
78
FC
CC
CE
C0
C0
CE
CC
FC
78
ENDCHAR
STARTCHAR Cdotaccent
ENCODING 266
SWIDTH 591 0
DWIDTH 11 0
BBX 9 17 1 0
BITMAP
0800
0800
0000
0000
3E00
7F00
E380
C180
C180
C000
C000
C000
C180
C180
E380
7F00
3E00
ENDCHAR
STARTCHAR cdotaccent
ENCODING 267
SWIDTH 456 0
DWIDTH 8 0
BBX 7 13 1 0
BITMAP
30
30
00
78
FC
CC
CE
C0
C0
CE
CC
FC
78
ENDCHAR
STARTCHAR Ccaron
ENCODING 268
SWIDTH 591 0
DWIDTH 11 0
BBX 9 17 1 0
BITMAP
3600
1400
1C00
0000
3E00
7F00
E380
C180
C180
C000
C000
C000
C180
C180
E380
7F00
3E00
ENDCHAR
STARTCHAR ccaron
ENCODING 269
SWIDTH 456 0
DWIDTH 8 0
BBX 7 13 1 0
BITMAP
6C
38
00
78
FC
CC
CE
C0
C0
CE
CC
FC
78
ENDCHAR
STARTCHAR Dcaron
ENCODING 270
SWIDTH 591 0
DWIDTH 11 0
BBX 9 17 1 0
BITMAP
6C00
3800
3800
0000
FC00
FF00
C300
C380
C180
C180
C180
C180
C180
C380
C300
FF00
FC00
ENDCHAR
STARTCHAR dcaron
ENCODING 271
SWIDTH 588 0
DWIDTH 11 0
BBX 10 13 1 0
BITMAP
06C0
06C0
06C0
76C0
FE80
CE80
C600
C600
C600
C600
C600
FE00
7600
ENDCHAR
STARTCHAR Dcroat
ENCODING 272
SWIDTH 591 0
DWIDTH 11 0
BBX 10 13 0 0
BITMAP
7E00
7F80
6180
61C0
60C0
FCC0
FCC0
60C0
60C0
61C0
6180
7F80
7E00
ENDCHAR
STARTCHAR dcroat
ENCODING 273
SWIDTH 503 0
DWIDTH 9 0
BBX 8 13 1 0
BITMAP
3F
3F
06
76
FE
CE
C6
C6
C6
C6
C6
FE
76
ENDCHAR
STARTCHAR Emacron
ENCODING 274
SWIDTH 546 0
DWIDTH 10 0
BBX 8 16 1 0
BITMAP
3C
3C
00
FF
FF
C0
C0
C0
FE
FE
C0
C0
C0
C0
FF
FF
ENDCHAR
STARTCHAR emacron
ENCODING 275
SWIDTH 456 0
DWIDTH 8 0
BBX 7 13 1 0
BITMAP
78
78
00
78
FC
CC
CC
FE
FE
C0
CE
FC
78
ENDCHAR
STARTCHAR Ebreve
ENCODING 276
SWIDTH 546 0
DWIDTH 10 0
BBX 8 17 1 0
BITMAP
24
3C
18
00
FF
FF
C0
C0
C0
FE
FE
C0
C0
C0
C0
FF
FF
ENDCHAR
STARTCHAR ebreve
ENCODING 277
SWIDTH 456 0
DWIDTH 8 0
BBX 7 13 1 0
BITMAP
7C
38
00
78
FC
CC
CE
FE
FE
CE
CE
FC
78
ENDCHAR
STARTCHAR Edotaccent
ENCODING 278
SWIDTH 546 0
DWIDTH 10 0
BBX 8 16 1 0
BITMAP
18
18
00
FF
FF
C0
C0
C0
FE
FE
C0
C0
C0
C0
FF
FF
ENDCHAR
STARTCHAR edotaccent
ENCODING 279
SWIDTH 456 0
DWIDTH 8 0
BBX 7 13 1 0
BITMAP
30
30
00
78
FC
CC
CC
FE
FE
C0
CE
FC
78
ENDCHAR
STARTCHAR Eogonek
ENCODING 280
SWIDTH 546 0
DWIDTH 10 0
BBX 9 16 1 -3
BITMAP
FF00
FF00
C000
C000
C000
FE00
FE00
C000
C000
C000
C000
FF00
FF00
0300
0300
0380
ENDCHAR
STARTCHAR eogonek
ENCODING 281
SWIDTH 456 0
DWIDTH 8 0
BBX 7 13 1 -3
BITMAP
78
FC
CC
FE
FE
C0
CE
CC
FC
78
10
10
1C
ENDCHAR
STARTCHAR Ecaron
ENCODING 282
SWIDTH 546 0
DWIDTH 10 0
BBX 8 17 1 0
BITMAP
64
3C
18
00
FF
FF
C0
C0
C0
FE
FE
C0
C0
C0
C0
FF
FF
ENDCHAR
STARTCHAR ecaron
ENCODING 283
SWIDTH 456 0
DWIDTH 8 0
BBX 7 13 1 0
BITMAP
6C
38
30
78
FC
CC
CC
FE
FE
C0
CE
FC
78
ENDCHAR
STARTCHAR Gcircumflex
ENCODING 284
SWIDTH 638 0
DWIDTH 11 0
BBX 10 17 1 0
BITMAP
0C00
1C00
3600
0000
3E00
7F00
E380
C180
C1C0
C000
CFC0
CFC0
C1C0
C1C0
E3C0
7FC0
3EC0
ENDCHAR
STARTCHAR gcircumflex
ENCODING 285
SWIDTH 500 0
DWIDTH 9 0
BBX 9 16 0 -3
BITMAP
1C00
3600
0180
3F00
7F00
6300
6300
7F00
3E00
6000
6000
7F00
7F80
C180
FF80
7F00
ENDCHAR
STARTCHAR Gbreve
ENCODING 286
SWIDTH 638 0
DWIDTH 11 0
BBX 10 17 1 0
BITMAP
3200
1E00
1C00
0000
3E00
7F00
E380
C180
C1C0
C000
CFC0
CFC0
C1C0
C1C0
E3C0
7FC0
3EC0
ENDCHAR
STARTCHAR gbreve
ENCODING 287
SWIDTH 500 0
DWIDTH 9 0
BBX 9 16 0 -3
BITMAP
3E00
1C00
0180
3F00
7E00
6300
6300
7F00
3E00
6000
6000
7F00
7F80
C180
FF80
7F00
ENDCHAR
STARTCHAR Gdotaccent
ENCODING 288
SWIDTH 638 0
DWIDTH 11 0
BBX 10 16 1 0
BITMAP
0C00
0C00
0000
3E00
7F00
E380
C180
C1C0
C000
CFC0
CFC0
C1C0
C1C0
E3C0
7FC0
3EC0
ENDCHAR
STARTCHAR gdotaccent
ENCODING 289
SWIDTH 500 0
DWIDTH 9 0
BBX 9 16 0 -3
BITMAP
0800
0800
0180
3F00
7E00
6300
6300
7F00
3E00
6000
6000
7F00
7F80
C180
FF80
7F00
ENDCHAR
STARTCHAR Gcommaaccent
ENCODING 290
SWIDTH 638 0
DWIDTH 11 0
BBX 10 17 1 -4
BITMAP
3E00
7F00
E380
C180
C1C0
C000
CFC0
CFC0
C1C0
C1C0
E3C0
7FC0
3EC0
0000
1C00
1C00
0800
ENDCHAR
STARTCHAR gcommaaccent
ENCODING 291
SWIDTH 500 0
DWIDTH 9 0
BBX 9 18 0 -3
BITMAP
0800
1800
1800
1980
0180
3F00
7E00
6300
6300
7F00
3E00
6000
6000
7F00
7F80
C180
FF80
7F00
ENDCHAR
STARTCHAR Hcircumflex
ENCODING 292
SWIDTH 591 0
DWIDTH 11 0
BBX 9 17 1 0
BITMAP
1800
1C00
3600
0000
C380
C380
C380
C380
C380
FF80
FF80
C380
C380
C380
C380
C380
C380
ENDCHAR
STARTCHAR hcircumflex
ENCODING 293
SWIDTH 500 0
DWIDTH 9 0
BBX 8 17 0 0
BITMAP
60
F0
90
00
60
60
60
6E
7F
73
63
63
63
63
63
63
63
ENDCHAR
STARTCHAR Hbar
ENCODING 294
SWIDTH 591 0
DWIDTH 11 0
BBX 10 13 0 0
BITMAP
61C0
61C0
FFC0
FFC0
61C0
61C0
7FC0
7FC0
61C0
61C0
61C0
61C0
61C0
ENDCHAR
STARTCHAR hbar
ENCODING 295
SWIDTH 500 0
DWIDTH 9 0
BBX 8 13 0 0
BITMAP
FC
FC
60
6E
7F
73
63
63
63
63
63
63
63
ENDCHAR
STARTCHAR Itilde
ENCODING 296
SWIDTH 228 0
DWIDTH 4 0
BBX 6 17 -1 0
BITMAP
64
FC
98
00
30
30
30
30
30
30
30
30
30
30
30
30
30
ENDCHAR
STARTCHAR itilde
ENCODING 297
SWIDTH 228 0
DWIDTH 4 0
BBX 6 13 -1 0
BITMAP
7C
F8
00
30
30
30
30
30
30
30
30
30
30
ENDCHAR
STARTCHAR Imacron
ENCODING 298
SWIDTH 228 0
DWIDTH 4 0
BBX 4 16 0 0
BITMAP
F0
F0
00
60
60
60
60
60
60
60
60
60
60
60
60
60
ENDCHAR
STARTCHAR imacron
ENCODING 299
SWIDTH 228 0
DWIDTH 4 0
BBX 4 13 0 0
BITMAP
F0
F0
00
60
60
60
60
60
60
60
60
60
60
ENDCHAR
STARTCHAR Ibreve
ENCODING 300
SWIDTH 228 0
DWIDTH 4 0
BBX 4 17 0 0
BITMAP
90
F0
60
00
60
60
60
60
60
60
60
60
60
60
60
60
60
ENDCHAR
STARTCHAR ibreve
ENCODING 301
SWIDTH 228 0
DWIDTH 4 0
BBX 4 13 0 0
BITMAP
F0
60
00
60
60
60
60
60
60
60
60
60
60
ENDCHAR
STARTCHAR Iogonek
ENCODING 302
SWIDTH 228 0
DWIDTH 4 0
BBX 3 16 1 -3
BITMAP
C0
C0
C0
C0
C0
C0
C0
C0
C0
C0
C0
C0
C0
C0
C0
E0
ENDCHAR
STARTCHAR iogonek
ENCODING 303
SWIDTH 228 0
DWIDTH 4 0
BBX 3 16 1 -3
BITMAP
C0
C0
00
C0
C0
C0
C0
C0
C0
C0
C0
C0
C0
C0
C0
E0
ENDCHAR
STARTCHAR Idotaccent
ENCODING 304
SWIDTH 228 0
DWIDTH 4 0
BBX 2 16 1 0
BITMAP
C0
C0
00
C0
C0
C0
C0
C0
C0
C0
C0
C0
C0
C0
C0
C0
ENDCHAR
STARTCHAR dotlessi
ENCODING 305
SWIDTH 228 0
DWIDTH 4 0
BBX 2 10 1 0
BITMAP
C0
C0
C0
C0
C0
C0
C0
C0
C0
C0
ENDCHAR
STARTCHAR IJ
ENCODING 306
SWIDTH 684 0
DWIDTH 12 0
BBX 10 13 1 0
BITMAP
C0C0
C0C0
C0C0
C0C0
C0C0
C0C0
C0C0
C0C0
C0C0
DCC0
DCC0
CFC0
C780
ENDCHAR
STARTCHAR ij
ENCODING 307
SWIDTH 456 0
DWIDTH 8 0
BBX 6 16 1 -3
BITMAP
CC
CC
00
CC
CC
CC
CC
CC
CC
CC
CC
CC
CC
0C
3C
3C
ENDCHAR
STARTCHAR Jcircumflex
ENCODING 308
SWIDTH 456 0
DWIDTH 8 0
BBX 9 17 0 0
BITMAP
0600
0700
0D80
0000
0600
0600
0600
0600
0600
0600
0600
0600
0600
C600
E600
7E00
3C00
ENDCHAR
STARTCHAR jcircumflex
ENCODING 309
SWIDTH 228 0
DWIDTH 4 0
BBX 6 16 -1 -3
BITMAP
30
78
4C
30
30
30
30
30
30
30
30
30
30
30
F0
E0
ENDCHAR
STARTCHAR Kcommaaccent
ENCODING 310
SWIDTH 591 0
DWIDTH 11 0
BBX 10 17 1 -4
BITMAP
C1C0
C300
C700
C600
CC00
DC00
DC00
FE00
E600
E700
C300
C380
C1C0
0000
1800
1800
0800
ENDCHAR
STARTCHAR kcommaaccent
ENCODING 311
SWIDTH 456 0
DWIDTH 8 0
BBX 7 17 1 -4
BITMAP
C0
C0
C0
CE
CC
D8
F8
F0
F8
D8
CC
CC
C6
00
30
30
10
ENDCHAR
STARTCHAR kgreenlandic
ENCODING 312
SWIDTH 457 0
DWIDTH 8 0
BBX 7 10 1 0
BITMAP
CE
CC
D8
F8
F0
F8
D8
CC
CC
C6
ENDCHAR
STARTCHAR Lacute
ENCODING 313
SWIDTH 500 0
DWIDTH 9 0
BBX 8 16 1 0
BITMAP
70
C0
00
C0
C0
C0
C0
C0
C0
C0
C0
C0
C0
C0
FF
FF
ENDCHAR
STARTCHAR lacute
ENCODING 314
SWIDTH 228 0
DWIDTH 4 0
BBX 4 16 1 0
BITMAP
70
C0
00
C0
C0
C0
C0
C0
C0
C0
C0
C0
C0
C0
C0
C0
ENDCHAR
STARTCHAR Lcommaaccent
ENCODING 315
SWIDTH 500 0
DWIDTH 9 0
BBX 8 17 1 -4
BITMAP
C0
C0
C0
C0
C0
C0
C0
C0
C0
C0
C0
FF
FF
00
38
38
10
ENDCHAR
STARTCHAR lcommaaccent
ENCODING 316
SWIDTH 228 0
DWIDTH 4 0
BBX 2 17 1 -4
BITMAP
C0
C0
C0
C0
C0
C0
C0
C0
C0
C0
C0
C0
C0
00
C0
C0
40
ENDCHAR
STARTCHAR Lcaron
ENCODING 317
SWIDTH 500 0
DWIDTH 9 0
BBX 8 13 1 0
BITMAP
C7
C7
C7
C2
C2
C6
C0
C0
C0
C0
C0
FF
FF
ENDCHAR
STARTCHAR lcaron
ENCODING 318
SWIDTH 315 0
DWIDTH 6 0
BBX 6 13 1 0
BITMAP
DC
DC
DC
C8
D8
D0
C0
C0
C0
C0
C0
C0
C0
ENDCHAR
STARTCHAR Ldot
ENCODING 319
SWIDTH 500 0
DWIDTH 9 0
BBX 8 13 1 0
BITMAP
C0
C0
C0
C6
C6
C0
C0
C0
C0
C0
C0
FF
FF
ENDCHAR
STARTCHAR ldot
ENCODING 320
SWIDTH 333 0
DWIDTH 6 0
BBX 5 13 1 0
BITMAP
C0
C0
C0
C0
C0
C0
D8
D8
C0
C0
C0
C0
C0
ENDCHAR
STARTCHAR Lslash
ENCODING 321
SWIDTH 500 0
DWIDTH 9 0
BBX 9 13 0 0
BITMAP
6000
6000
6000
6400
6800
7000
6000
E000
E000
E000
6000
7F80
7F80
ENDCHAR
STARTCHAR lslash
ENCODING 322
SWIDTH 228 0
DWIDTH 4 0
BBX 5 13 0 0
BITMAP
60
60
60
60
68
78
70
60
E0
E0
60
60
60
ENDCHAR
STARTCHAR Nacute
ENCODING 323
SWIDTH 591 0
DWIDTH 11 0
BBX 9 16 1 0
BITMAP
0E00
1800
0000
C180
E180
E180
F180
F980
D980
DD80
CD80
CF80
C780
C780
C380
C380
ENDCHAR
STARTCHAR nacute
ENCODING 324
SWIDTH 500 0
DWIDTH 9 0
BBX 7 13 1 0
BITMAP
1C
30
00
DC
FE
E6
C6
C6
C6
C6
C6
C6
C6
ENDCHAR
STARTCHAR Ncommaaccent
ENCODING 325
SWIDTH 591 0
DWIDTH 11 0
BBX 9 17 1 -4
BITMAP
C180
E180
E180
F180
F980
D980
DD80
CD80
CF80
C780
C780
C380
C380
0000
1800
1800
0800
ENDCHAR
STARTCHAR ncommaaccent
ENCODING 326
SWIDTH 500 0
DWIDTH 9 0
BBX 7 14 1 -4
BITMAP
DC
FE
E6
C6
C6
C6
C6
C6
C6
C6
00
38
38
10
ENDCHAR
STARTCHAR Ncaron
ENCODING 327
SWIDTH 591 0
DWIDTH 11 0
BBX 9 17 1 0
BITMAP
3600
1C00
1C00
0000
C180
E180
E180
F180
F980
D980
DD80
CD80
CF80
C780
C780
C380
C380
ENDCHAR
STARTCHAR ncaron
ENCODING 328
SWIDTH 500 0
DWIDTH 9 0
BBX 7 13 1 0
BITMAP
6C
38
38
DC
FE
E6
C6
C6
C6
C6
C6
C6
C6
ENDCHAR
STARTCHAR napostrophe
ENCODING 329
SWIDTH 675 0
DWIDTH 12 0
BBX 10 13 1 0
BITMAP
C000
C000
4000
DB80
1FC0
1CC0
18C0
18C0
18C0
18C0
18C0
18C0
18C0
ENDCHAR
STARTCHAR Eng
ENCODING 330
SWIDTH 592 0
DWIDTH 11 0
BBX 9 16 1 -3
BITMAP
C180
E180
E180
F180
F980
D980
DD80
CD80
CF80
C780
C780
C380
C380
0380
0700
0700
ENDCHAR
STARTCHAR eng
ENCODING 331
SWIDTH 500 0
DWIDTH 9 0
BBX 7 13 1 -3
BITMAP
DC
FE
E6
C6
C6
C6
C6
C6
C6
C6
06
1E
1C
ENDCHAR
STARTCHAR Omacron
ENCODING 332
SWIDTH 638 0
DWIDTH 11 0
BBX 10 16 1 0
BITMAP
3E00
3E00
0000
3E00
7F00
E380
C180
C1C0
C1C0
C1C0
C1C0
C1C0
C180
E380
7F00
3E00
ENDCHAR
STARTCHAR omacron
ENCODING 333
SWIDTH 500 0
DWIDTH 9 0
BBX 7 13 1 0
BITMAP
7C
7C
00
7C
FE
C6
C6
C6
C6
C6
C6
FE
7C
ENDCHAR
STARTCHAR Obreve
ENCODING 334
SWIDTH 638 0
DWIDTH 11 0
BBX 10 17 1 0
BITMAP
3200
1E00
1C00
0000
3E00
7F00
E380
C180
C1C0
C1C0
C1C0
C1C0
C1C0
C180
E380
7F00
3E00
ENDCHAR
STARTCHAR obreve
ENCODING 335
SWIDTH 500 0
DWIDTH 9 0
BBX 7 13 1 0
BITMAP
7C
38
00
7C
FE
C6
C6
C6
C6
C6
C6
FE
7C
ENDCHAR
STARTCHAR Ohungarumlaut
ENCODING 336
SWIDTH 638 0
DWIDTH 11 0
BBX 10 16 1 0
BITMAP
0F00
1E00
0000
3E00
7F00
E380
C180
C1C0
C1C0
C1C0
C1C0
C1C0
C180
E380
7F00
3E00
ENDCHAR
STARTCHAR ohungarumlaut
ENCODING 337
SWIDTH 500 0
DWIDTH 9 0
BBX 7 13 1 0
BITMAP
36
6C
00
7C
FE
C6
C6
C6
C6
C6
C6
FE
7C
ENDCHAR
STARTCHAR OE
ENCODING 338
SWIDTH 819 0
DWIDTH 15 0
BBX 13 13 1 0
BITMAP
3FF8
7FF8
E380
C380
C380
C3F0
C3F0
C380
C380
C380
E380
7FF8
3FF8
ENDCHAR
STARTCHAR oe
ENCODING 339
SWIDTH 773 0
DWIDTH 14 0
BBX 12 10 1 0
BITMAP
79E0
FFE0
C730
C630
C7F0
C7F0
C600
C730
FFF0
79E0
ENDCHAR
STARTCHAR Racute
ENCODING 340
SWIDTH 591 0
DWIDTH 11 0
BBX 9 16 1 0
BITMAP
0E00
1800
0000
FE00
FF00
C380
C180
C380
C380
FF00
FE00
C600
C700
C300
C380
C180
ENDCHAR
STARTCHAR racute
ENCODING 341
SWIDTH 318 0
DWIDTH 6 0
BBX 5 13 1 0
BITMAP
60
C0
00
D8
F8
E0
C0
C0
C0
C0
C0
C0
C0
ENDCHAR
STARTCHAR Rcommaaccent
ENCODING 342
SWIDTH 591 0
DWIDTH 11 0
BBX 9 17 1 -4
BITMAP
FE00
FF80
C380
C180
C380
FF00
FE00
C600
C700
C300
C300
C380
C180
0000
1800
1800
0800
ENDCHAR
STARTCHAR rcommaaccent
ENCODING 343
SWIDTH 318 0
DWIDTH 6 0
BBX 5 14 1 -4
BITMAP
D8
F8
E0
C0
C0
C0
C0
C0
C0
C0
00
C0
C0
40
ENDCHAR
STARTCHAR Rcaron
ENCODING 344
SWIDTH 591 0
DWIDTH 11 0
BBX 9 17 1 0
BITMAP
3600
1C00
1C00
0000
FE00
FF00
C380
C180
C180
C380
FF00
FE00
C600
C700
C300
C380
C180
ENDCHAR
STARTCHAR rcaron
ENCODING 345
SWIDTH 318 0
DWIDTH 6 0
BBX 6 13 0 0
BITMAP
90
F0
60
6C
7C
70
60
60
60
60
60
60
60
ENDCHAR
STARTCHAR Sacute
ENCODING 346
SWIDTH 546 0
DWIDTH 10 0
BBX 8 16 1 0
BITMAP
0C
18
00
3C
FE
C7
C3
E0
FC
7E
1F
07
C3
C3
FE
3C
ENDCHAR
STARTCHAR sacute
ENCODING 347
SWIDTH 456 0
DWIDTH 8 0
BBX 7 13 1 0
BITMAP
1C
30
00
78
FC
CC
C0
F8
3C
0E
CE
FC
78
ENDCHAR
STARTCHAR Scircumflex
ENCODING 348
SWIDTH 546 0
DWIDTH 10 0
BBX 8 17 1 0
BITMAP
18
38
2C
40
3C
FE
E7
C3
E0
F8
7E
1F
07
C3
C3
FE
3C
ENDCHAR
STARTCHAR scircumflex
ENCODING 349
SWIDTH 456 0
DWIDTH 8 0
BBX 7 13 1 0
BITMAP
30
78
04
78
FC
CC
C0
F8
3C
0E
CE
FC
78
ENDCHAR
STARTCHAR Scedilla
ENCODING 350
SWIDTH 546 0
DWIDTH 10 0
BBX 8 16 1 -3
BITMAP
3C
FE
C7
C3
E0
FC
7E
0F
07
C3
E7
FE
7C
18
0C
38
ENDCHAR
STARTCHAR scedilla
ENCODING 351
SWIDTH 456 0
DWIDTH 8 0
BBX 7 13 1 -3
BITMAP
78
FC
CC
C0
F8
3C
0E
CE
FC
78
30
18
70
ENDCHAR
STARTCHAR Scaron
ENCODING 352
SWIDTH 546 0
DWIDTH 10 0
BBX 8 17 1 0
BITMAP
64
3C
18
00
3C
FE
C7
C3
E0
FC
7E
1F
07
C3
C3
FE
3C
ENDCHAR
STARTCHAR scaron
ENCODING 353
SWIDTH 456 0
DWIDTH 8 0
BBX 7 13 1 0
BITMAP
6C
30
00
78
FC
CC
CC
F8
3C
0E
CE
FC
78
ENDCHAR
STARTCHAR Tcommaaccent
ENCODING 354
SWIDTH 500 0
DWIDTH 9 0
BBX 9 17 0 -4
BITMAP
FF80
FF80
1C00
1C00
1C00
1C00
1C00
1C00
1C00
1C00
1C00
1C00
1C00
0000
1C00
1C00
0800
ENDCHAR
STARTCHAR tcommaaccent
ENCODING 355
SWIDTH 272 0
DWIDTH 5 0
BBX 5 17 0 -4
BITMAP
60
60
60
F8
F8
60
60
60
60
60
60
78
38
00
70
70
20
ENDCHAR
STARTCHAR Tcaron
ENCODING 356
SWIDTH 500 0
DWIDTH 9 0
BBX 9 17 0 0
BITMAP
3600
1400
1C00
0000
FF80
FF80
1C00
1C00
1C00
1C00
1C00
1C00
1C00
1C00
1C00
1C00
1C00
ENDCHAR
STARTCHAR tcaron
ENCODING 357
SWIDTH 393 0
DWIDTH 7 0
BBX 8 13 0 0
BITMAP
67
67
63
FA
FA
60
60
60
60
60
60
78
38
ENDCHAR
STARTCHAR Tbar
ENCODING 358
SWIDTH 500 0
DWIDTH 9 0
BBX 9 13 0 0
BITMAP
FF80
FF80
1C00
1C00
1C00
1C00
7F00
7F00
1C00
1C00
1C00
1C00
1C00
ENDCHAR
STARTCHAR tbar
ENCODING 359
SWIDTH 272 0
DWIDTH 5 0
BBX 5 13 0 0
BITMAP
60
60
60
F8
F8
60
F8
F8
60
60
60
78
38
ENDCHAR
STARTCHAR Utilde
ENCODING 360
SWIDTH 591 0
DWIDTH 11 0
BBX 9 17 1 0
BITMAP
3200
3E00
6E00
0000
C380
C380
C380
C380
C380
C380
C380
C380
C380
C380
E300
7F00
3E00
ENDCHAR
STARTCHAR utilde
ENCODING 361
SWIDTH 500 0
DWIDTH 9 0
BBX 7 13 1 0
BITMAP
7E
FC
00
C6
C6
C6
C6
C6
C6
C6
C6
FE
76
ENDCHAR
STARTCHAR Umacron
ENCODING 362
SWIDTH 591 0
DWIDTH 11 0
BBX 9 16 1 0
BITMAP
3E00
3E00
0000
C380
C380
C380
C380
C380
C380
C380
C380
C380
C380
E300
7F00
3E00
ENDCHAR
STARTCHAR umacron
ENCODING 363
SWIDTH 500 0
DWIDTH 9 0
BBX 7 13 1 0
BITMAP
7C
7C
00
C6
C6
C6
C6
C6
C6
C6
C6
FE
76
ENDCHAR
STARTCHAR Ubreve
ENCODING 364
SWIDTH 591 0
DWIDTH 11 0
BBX 9 17 1 0
BITMAP
2600
3E00
1C00
0000
C380
C380
C380
C380
C380
C380
C380
C380
C380
C380
E300
7F00
3E00
ENDCHAR
STARTCHAR ubreve
ENCODING 365
SWIDTH 500 0
DWIDTH 9 0
BBX 7 13 1 0
BITMAP
7C
38
00
C6
C6
C6
C6
C6
C6
C6
C6
FE
76
ENDCHAR
STARTCHAR Uring
ENCODING 366
SWIDTH 591 0
DWIDTH 11 0
BBX 9 17 1 0
BITMAP
1C00
1400
1C00
0000
C380
C380
C380
C380
C380
C380
C380
C380
C380
C380
E300
7F00
3E00
ENDCHAR
STARTCHAR uring
ENCODING 367
SWIDTH 500 0
DWIDTH 9 0
BBX 7 13 1 0
BITMAP
38
28
38
C6
C6
C6
C6
C6
C6
C6
C6
FE
76
ENDCHAR
STARTCHAR Uhungarumlaut
ENCODING 368
SWIDTH 591 0
DWIDTH 11 0
BBX 9 16 1 0
BITMAP
1B00
3600
0000
C380
C380
C380
C380
C380
C380
C380
C380
C380
C380
E300
7F00
3E00
ENDCHAR
STARTCHAR uhungarumlaut
ENCODING 369
SWIDTH 500 0
DWIDTH 9 0
BBX 7 13 1 0
BITMAP
36
6C
00
C6
C6
C6
C6
C6
C6
C6
C6
FE
76
ENDCHAR
STARTCHAR Uogonek
ENCODING 370
SWIDTH 591 0
DWIDTH 11 0
BBX 9 16 1 -3
BITMAP
C380
C380
C380
C380
C380
C380
C380
C380
C380
C380
E300
7F00
3C00
0C00
0C00
0E00
ENDCHAR
STARTCHAR uogonek
ENCODING 371
SWIDTH 500 0
DWIDTH 9 0
BBX 8 13 1 -3
BITMAP
C6
C6
C6
C6
C6
C6
C6
C6
FE
76
06
06
07
ENDCHAR
STARTCHAR Wcircumflex
ENCODING 372
SWIDTH 773 0
DWIDTH 14 0
BBX 14 17 0 0
BITMAP
0300
0780
0480
0000
C30C
E38C
6798
6798
6798
6598
64D8
3CD0
3CF0
3CF0
38F0
3870
1860
ENDCHAR
STARTCHAR wcircumflex
ENCODING 373
SWIDTH 638 0
DWIDTH 11 0
BBX 11 13 0 0
BITMAP
0600
0E00
1B00
C660
EE60
6E60
6F60
6F40
6BC0
2BC0
39C0
39C0
3980
ENDCHAR
STARTCHAR Ycircumflex
ENCODING 374
SWIDTH 546 0
DWIDTH 10 0
BBX 10 17 0 0
BITMAP
0C00
1E00
1600
2000
E1C0
6180
6380
3300
3300
3E00
1E00
1C00
0C00
0C00
0C00
0C00
0C00
ENDCHAR
STARTCHAR ycircumflex
ENCODING 375
SWIDTH 456 0
DWIDTH 8 0
BBX 8 16 0 -3
BITMAP
18
3C
34
E3
63
66
66
36
36
3C
1C
1C
18
18
78
70
ENDCHAR
STARTCHAR Ydieresis
ENCODING 376
SWIDTH 546 0
DWIDTH 10 0
BBX 10 16 0 0
BITMAP
3200
3200
0000
E1C0
6180
6380
3300
3300
3E00
1E00
1C00
0C00
0C00
0C00
0C00
0C00
ENDCHAR
STARTCHAR Zacute
ENCODING 377
SWIDTH 500 0
DWIDTH 9 0
BBX 9 16 0 0
BITMAP
0E00
1800
0000
7F80
7F00
0700
0600
0E00
0C00
1C00
1800
3800
3000
7000
7F80
FF80
ENDCHAR
STARTCHAR zacute
ENCODING 378
SWIDTH 410 0
DWIDTH 7 0
BBX 7 13 0 0
BITMAP
0C
38
00
7E
7E
0C
1C
18
38
30
70
7E
FE
ENDCHAR
STARTCHAR Zdotaccent
ENCODING 379
SWIDTH 500 0
DWIDTH 9 0
BBX 9 16 0 0
BITMAP
0800
0800
0000
7F80
7F00
0700
0600
0E00
0C00
1C00
1800
3800
3000
7000
7F80
FF80
ENDCHAR
STARTCHAR zdotaccent
ENCODING 380
SWIDTH 410 0
DWIDTH 7 0
BBX 7 13 0 0
BITMAP
18
18
00
7E
7E
0C
1C
18
38
30
70
7E
FE
ENDCHAR
STARTCHAR Zcaron
ENCODING 381
SWIDTH 500 0
DWIDTH 9 0
BBX 9 17 0 0
BITMAP
3600
1400
1C00
0000
7F80
7F00
0700
0600
0E00
0C00
1C00
1800
3800
3000
7000
7F80
FF80
ENDCHAR
STARTCHAR zcaron
ENCODING 382
SWIDTH 410 0
DWIDTH 7 0
BBX 7 13 0 0
BITMAP
6C
38
18
7E
7E
0C
1C
18
38
30
70
7E
FE
ENDCHAR
STARTCHAR longs
ENCODING 383
SWIDTH 228 0
DWIDTH 4 0
BBX 5 13 0 0
BITMAP
38
78
60
E0
E0
60
60
60
60
60
60
60
60
ENDCHAR
STARTCHAR florin
ENCODING 402
SWIDTH 456 0
DWIDTH 8 0
BBX 8 16 0 -3
BITMAP
07
0F
0C
0C
3E
3E
18
18
18
18
18
18
38
30
70
E0
ENDCHAR
STARTCHAR Aringacute
ENCODING 506
SWIDTH 610 0
DWIDTH 11 0
BBX 11 18 0 0
BITMAP
0300
0600
0000
0E00
0A00
0E00
0E00
1E00
1B00
1B00
3300
3380
3180
7F80
7FC0
60C0
E0C0
C0E0
ENDCHAR
STARTCHAR aringacute
ENCODING 507
SWIDTH 500 0
DWIDTH 9 0
BBX 8 17 0 0
BITMAP
0E
18
00
00
3C
38
00
3C
7E
66
06
3E
7E
E6
E6
FF
73
ENDCHAR
STARTCHAR AEacute
ENCODING 508
SWIDTH 819 0
DWIDTH 15 0
BBX 14 16 0 0
BITMAP
01C0
0300
0000
0FFC
0FFC
0F00
1B00
1B00
1BF8
31F8
3180
7F80
7FC0
60C0
C0FC
C0FC
ENDCHAR
STARTCHAR aeacute
ENCODING 509
SWIDTH 729 0
DWIDTH 13 0
BBX 11 13 1 0
BITMAP
0700
0C00
0000
7BC0
FFE0
CE60
0E60
7FE0
FFE0
CE00
CE60
FFE0
73C0
ENDCHAR
STARTCHAR Oslashacute
ENCODING 510
SWIDTH 638 0
DWIDTH 11 0
BBX 10 16 1 0
BITMAP
0600
0C00
0000
3EC0
7F80
E380
C3C0
C7C0
C5C0
CDC0
D9C0
D1C0
F180
E380
7F00
FE00
ENDCHAR
STARTCHAR oslashacute
ENCODING 511
SWIDTH 500 0
DWIDTH 9 0
BBX 7 13 1 0
BITMAP
1C
30
00
7E
FE
CE
CE
D6
D6
E6
E6
FE
FC
ENDCHAR
STARTCHAR circumflex
ENCODING 710
SWIDTH 272 0
DWIDTH 5 0
BBX 5 3 0 10
BITMAP
70
70
D8
ENDCHAR
STARTCHAR caron
ENCODING 711
SWIDTH 272 0
DWIDTH 5 0
BBX 5 3 0 10
BITMAP
D8
70
60
ENDCHAR
STARTCHAR uni02C9
ENCODING 713
SWIDTH 500 0
DWIDTH 9 0
BBX 9 2 0 15
BITMAP
FF80
FF80
ENDCHAR
STARTCHAR breve
ENCODING 728
SWIDTH 272 0
DWIDTH 5 0
BBX 5 2 0 11
BITMAP
F8
70
ENDCHAR
STARTCHAR dotaccent
ENCODING 729
SWIDTH 272 0
DWIDTH 5 0
BBX 1 2 2 11
BITMAP
80
80
ENDCHAR
STARTCHAR ring
ENCODING 730
SWIDTH 272 0
DWIDTH 5 0
BBX 3 4 1 9
BITMAP
E0
A0
A0
E0
ENDCHAR
STARTCHAR ogonek
ENCODING 731
SWIDTH 272 0
DWIDTH 5 0
BBX 3 4 1 -3
BITMAP
40
C0
C0
60
ENDCHAR
STARTCHAR tilde
ENCODING 732
SWIDTH 272 0
DWIDTH 5 0
BBX 6 2 -1 11
BITMAP
7C
FC
ENDCHAR
STARTCHAR hungarumlaut
ENCODING 733
SWIDTH 272 0
DWIDTH 5 0
BBX 6 2 0 11
BITMAP
7C
D0
ENDCHAR
STARTCHAR pi
ENCODING 960
SWIDTH 627 0
DWIDTH 11 0
BBX 10 10 0 0
BITMAP
FFC0
FFC0
3980
3980
3180
3180
3180
3180
3180
7180
ENDCHAR
STARTCHAR Wgrave
ENCODING 7808
SWIDTH 773 0
DWIDTH 14 0
BBX 14 16 0 0
BITMAP
0E00
0300
0000
C30C
E38C
6798
6798
6798
6598
64D8
3CD0
3CF0
3CF0
38F0
3870
1860
ENDCHAR
STARTCHAR wgrave
ENCODING 7809
SWIDTH 638 0
DWIDTH 11 0
BBX 11 13 0 0
BITMAP
1C00
0600
0000
C660
EE60
6E60
6F60
6F40
6BC0
2BC0
39C0
39C0
3980
ENDCHAR
STARTCHAR Wacute
ENCODING 7810
SWIDTH 773 0
DWIDTH 14 0
BBX 14 16 0 0
BITMAP
0180
0300
0000
C30C
E38C
6798
6798
6798
6598
64D8
3CD0
3CF0
3CF0
38F0
3870
1860
ENDCHAR
STARTCHAR wacute
ENCODING 7811
SWIDTH 638 0
DWIDTH 11 0
BBX 11 13 0 0
BITMAP
0300
0600
0000
C660
EE60
6E60
6F60
6F40
6BC0
2BC0
39C0
39C0
3980
ENDCHAR
STARTCHAR Wdieresis
ENCODING 7812
SWIDTH 773 0
DWIDTH 14 0
BBX 14 16 0 0
BITMAP
0C80
0C80
0000
C30C
E38C
6798
6798
6798
6598
64D8
3CD0
3CF0
3CF0
38F0
3870
1860
ENDCHAR
STARTCHAR wdieresis
ENCODING 7813
SWIDTH 638 0
DWIDTH 11 0
BBX 11 13 0 0
BITMAP
1B00
1B00
0000
C660
EE60
6E60
6F60
6F40
6BC0
2BC0
39C0
39C0
3980
ENDCHAR
STARTCHAR Ygrave
ENCODING 7922
SWIDTH 546 0
DWIDTH 10 0
BBX 10 16 0 0
BITMAP
3800
0C00
0000
E1C0
6180
6380
3300
3300
3E00
1E00
1C00
0C00
0C00
0C00
0C00
0C00
ENDCHAR
STARTCHAR ygrave
ENCODING 7923
SWIDTH 456 0
DWIDTH 8 0
BBX 8 16 0 -3
BITMAP
30
18
00
E3
63
66
66
36
36
3C
1C
1C
18
18
78
70
ENDCHAR
STARTCHAR endash
ENCODING 8211
SWIDTH 456 0
DWIDTH 8 0
BBX 8 2 0 4
BITMAP
FF
FF
ENDCHAR
STARTCHAR emdash
ENCODING 8212
SWIDTH 819 0
DWIDTH 15 0
BBX 15 2 0 4
BITMAP
FFFE
FFFE
ENDCHAR
STARTCHAR afii00208
ENCODING 8213
SWIDTH 819 0
DWIDTH 15 0
BBX 11 2 2 4
BITMAP
FFE0
FFE0
ENDCHAR
STARTCHAR underscoredbl
ENCODING 8215
SWIDTH 500 0
DWIDTH 9 0
BBX 9 3 0 -4
BITMAP
FF80
0000
FF80
ENDCHAR
STARTCHAR quoteleft
ENCODING 8216
SWIDTH 228 0
DWIDTH 4 0
BBX 2 6 1 7
BITMAP
40
C0
80
C0
C0
C0
ENDCHAR
STARTCHAR quoteright
ENCODING 8217
SWIDTH 228 0
DWIDTH 4 0
BBX 2 6 1 7
BITMAP
C0
C0
C0
40
C0
80
ENDCHAR
STARTCHAR quotesinglbase
ENCODING 8218
SWIDTH 228 0
DWIDTH 4 0
BBX 2 6 1 -3
BITMAP
C0
C0
C0
40
C0
80
ENDCHAR
STARTCHAR quotereversed
ENCODING 8219
SWIDTH 228 0
DWIDTH 4 0
BBX 2 6 1 7
BITMAP
C0
C0
C0
C0
40
40
ENDCHAR
STARTCHAR quotedblleft
ENCODING 8220
SWIDTH 410 0
DWIDTH 7 0
BBX 6 6 1 7
BITMAP
4C
C8
98
DC
DC
DC
ENDCHAR
STARTCHAR quotedblright
ENCODING 8221
SWIDTH 410 0
DWIDTH 7 0
BBX 6 6 1 7
BITMAP
DC
DC
DC
48
C8
98
ENDCHAR
STARTCHAR quotedblbase
ENCODING 8222
SWIDTH 410 0
DWIDTH 7 0
BBX 6 6 1 -3
BITMAP
DC
DC
DC
48
C8
98
ENDCHAR
STARTCHAR dagger
ENCODING 8224
SWIDTH 456 0
DWIDTH 8 0
BBX 8 16 0 -3
BITMAP
18
18
18
FF
FF
18
18
18
18
18
18
18
18
18
18
18
ENDCHAR
STARTCHAR daggerdbl
ENCODING 8225
SWIDTH 456 0
DWIDTH 8 0
BBX 8 16 0 -3
BITMAP
18
18
18
FF
FF
18
18
18
18
18
18
FF
FF
18
18
18
ENDCHAR
STARTCHAR bullet
ENCODING 8226
SWIDTH 287 0
DWIDTH 5 0
BBX 5 5 0 4
BITMAP
70
78
F8
78
70
ENDCHAR
STARTCHAR ellipsis
ENCODING 8230
SWIDTH 819 0
DWIDTH 15 0
BBX 13 3 1 0
BITMAP
E738
E738
E738
ENDCHAR
STARTCHAR perthousand
ENCODING 8240
SWIDTH 819 0
DWIDTH 15 0
BBX 15 13 0 0
BITMAP
7300
D200
D200
D400
D400
F400
7C00
0B9C
0AF6
1EF6
16F6
12D6
339C
ENDCHAR
STARTCHAR minute
ENCODING 8242
SWIDTH 194 0
DWIDTH 4 0
BBX 3 3 0 10
BITMAP
60
40
C0
ENDCHAR
STARTCHAR second
ENCODING 8243
SWIDTH 389 0
DWIDTH 7 0
BBX 6 3 0 10
BITMAP
6C
58
D8
ENDCHAR
STARTCHAR guilsinglleft
ENCODING 8249
SWIDTH 272 0
DWIDTH 5 0
BBX 4 7 0 3
BITMAP
30
30
60
C0
60
30
30
ENDCHAR
STARTCHAR guilsinglright
ENCODING 8250
SWIDTH 272 0
DWIDTH 5 0
BBX 5 7 0 3
BITMAP
C0
60
30
38
30
60
C0
ENDCHAR
STARTCHAR exclamdbl
ENCODING 8252
SWIDTH 545 0
DWIDTH 10 0
BBX 8 13 1 0
BITMAP
E7
E7
E7
E7
E6
C6
46
42
42
00
E7
E7
E7
ENDCHAR
STARTCHAR uni203E
ENCODING 8254
SWIDTH 500 0
DWIDTH 9 0
BBX 9 2 0 15
BITMAP
FF80
FF80
ENDCHAR
STARTCHAR fraction
ENCODING 8260
SWIDTH 137 0
DWIDTH 2 0
BBX 8 13 -3 0
BITMAP
01
03
02
04
04
08
08
10
30
20
60
40
80
ENDCHAR
STARTCHAR uni207F
ENCODING 8319
SWIDTH 325 0
DWIDTH 6 0
BBX 4 7 1 6
BITMAP
F0
90
90
90
90
90
90
ENDCHAR
STARTCHAR franc
ENCODING 8355
SWIDTH 503 0
DWIDTH 9 0
BBX 8 13 1 0
BITMAP
FC
FC
C0
C0
CD
CF
FC
FC
CC
CC
CC
CC
CC
ENDCHAR
STARTCHAR lira
ENCODING 8356
SWIDTH 456 0
DWIDTH 8 0
BBX 8 13 0 0
BITMAP
1C
3E
77
63
60
FC
FC
FC
FC
60
60
FF
FF
ENDCHAR
STARTCHAR peseta
ENCODING 8359
SWIDTH 960 0
DWIDTH 17 0
BBX 16 13 1 0
BITMAP
F980
FD80
CD80
CFFE
CFFE
CDB7
FDB0
F1BC
C18E
C187
C1B3
C1FF
C0DE
ENDCHAR
STARTCHAR Euro
ENCODING 8364
SWIDTH 456 0
DWIDTH 8 0
BBX 8 13 0 0
BITMAP
0F
1F
38
70
FE
FE
60
FE
FE
70
38
1F
0F
ENDCHAR
STARTCHAR afii61248
ENCODING 8453
SWIDTH 789 0
DWIDTH 14 0
BBX 12 13 1 0
BITMAP
70C0
D080
9980
8100
9B00
D200
F4E0
05B0
0930
1930
1130
31B0
61E0
ENDCHAR
STARTCHAR afii61289
ENCODING 8467
SWIDTH 490 0
DWIDTH 9 0
BBX 7 14 1 0
BITMAP
18
3C
64
66
64
6C
78
70
70
E0
E0
E0
7C
3C
ENDCHAR
STARTCHAR afii61352
ENCODING 8470
SWIDTH 914 0
DWIDTH 16 0
BBX 15 13 1 0
BITMAP
C19C
E1BC
E1A6
F1A6
F1A6
F9B4
D9BC
CD80
CFBC
C7BC
C780
C380
C380
ENDCHAR
STARTCHAR trademark
ENCODING 8482
SWIDTH 819 0
DWIDTH 15 0
BBX 12 8 1 5
BITMAP
FB30
FB30
3330
33B0
32D0
32D0
32D0
32D0
ENDCHAR
STARTCHAR Omega
ENCODING 8486
SWIDTH 768 0
DWIDTH 14 0
BBX 10 13 2 0
BITMAP
1E00
7F80
6380
E1C0
C1C0
C0C0
C0C0
C0C0
C0C0
C180
6180
F3C0
F3C0
ENDCHAR
STARTCHAR estimated
ENCODING 8494
SWIDTH 600 0
DWIDTH 11 0
BBX 9 10 1 0
BITMAP
3E00
4100
C100
C180
C180
FE00
C000
C100
4100
3E00
ENDCHAR
STARTCHAR oneeighth
ENCODING 8539
SWIDTH 684 0
DWIDTH 12 0
BBX 11 13 1 0
BITMAP
40C0
C080
4100
4300
4200
47C0
F560
F960
0960
11C0
1160
23E0
61C0
ENDCHAR
STARTCHAR threeeighths
ENCODING 8540
SWIDTH 684 0
DWIDTH 12 0
BBX 12 13 0 0
BITMAP
7040
78C0
5880
3180
3100
DAE0
7AB0
74B0
04B0
08E0
18B0
11F0
30E0
ENDCHAR
STARTCHAR fiveeighths
ENCODING 8541
SWIDTH 684 0
DWIDTH 12 0
BBX 12 13 0 0
BITMAP
7840
78C0
4080
7100
1900
DAE0
5AB0
74B0
04B0
08E0
18B0
11F0
30E0
ENDCHAR
STARTCHAR seveneighths
ENCODING 8542
SWIDTH 684 0
DWIDTH 12 0
BBX 11 13 1 0
BITMAP
F180
F100
3300
2200
6400
45C0
4960
4960
1160
11C0
2160
63E0
41C0
ENDCHAR
STARTCHAR arrowleft
ENCODING 8592
SWIDTH 1000 0
DWIDTH 18 0
BBX 16 7 1 1
BITMAP
1000
3000
FFFF
FFFF
6000
3000
1000
ENDCHAR
STARTCHAR arrowup
ENCODING 8593
SWIDTH 500 0
DWIDTH 9 0
BBX 7 17 1 -4
BITMAP
10
38
7C
DE
18
18
18
18
18
18
18
18
18
18
18
18
18
ENDCHAR
STARTCHAR arrowright
ENCODING 8594
SWIDTH 1000 0
DWIDTH 18 0
BBX 16 7 1 1
BITMAP
0008
000C
FFFF
FFFF
0006
000C
0008
ENDCHAR
STARTCHAR arrowdown
ENCODING 8595
SWIDTH 500 0
DWIDTH 9 0
BBX 7 17 1 -4
BITMAP
18
18
18
18
18
18
18
18
18
18
18
18
9A
7E
7C
38
10
ENDCHAR
STARTCHAR arrowboth
ENCODING 8596
SWIDTH 1000 0
DWIDTH 18 0
BBX 16 7 1 1
BITMAP
1008
300C
FFFF
FFFF
6006
300C
1008
ENDCHAR
STARTCHAR arrowupdn
ENCODING 8597
SWIDTH 500 0
DWIDTH 9 0
BBX 7 17 1 -4
BITMAP
10
38
7C
F6
30
30
30
30
30
30
30
30
B2
FE
7C
38
10
ENDCHAR
STARTCHAR arrowupdnbse
ENCODING 8616
SWIDTH 500 0
DWIDTH 9 0
BBX 7 17 1 -4
BITMAP
10
38
7C
F6
30
30
30
30
30
30
B2
FE
7C
38
10
00
FE
ENDCHAR
STARTCHAR partialdiff
ENCODING 8706
SWIDTH 494 0
DWIDTH 9 0
BBX 7 14 1 0
BITMAP
30
7C
8C
0E
06
06
7E
EE
C6
C6
C6
CC
FC
78
ENDCHAR
STARTCHAR Delta
ENCODING 8710
SWIDTH 588 0
DWIDTH 11 0
BBX 10 13 0 0
BITMAP
0E00
0E00
1E00
1F00
1B00
3300
3380
3180
6180
6180
61C0
FFC0
FFC0
ENDCHAR
STARTCHAR product
ENCODING 8719
SWIDTH 823 0
DWIDTH 15 0
BBX 11 15 2 -2
BITMAP
FFE0
61C0
61C0
61C0
61C0
61C0
61C0
61C0
61C0
61C0
61C0
61C0
61C0
61C0
61C0
ENDCHAR
STARTCHAR summation
ENCODING 8721
SWIDTH 712 0
DWIDTH 13 0
BBX 11 15 1 -2
BITMAP
7FE0
7000
3800
1800
1C00
0E00
0700
0300
0600
0C00
1C00
3800
3000
7FE0
FFE0
ENDCHAR
STARTCHAR minus
ENCODING 8722
SWIDTH 479 0
DWIDTH 9 0
BBX 7 2 1 4
BITMAP
FE
FE
ENDCHAR
STARTCHAR uni2215
ENCODING 8725
SWIDTH 137 0
DWIDTH 2 0
BBX 8 13 -3 0
BITMAP
01
03
02
04
04
08
08
10
10
20
60
40
C0
ENDCHAR
STARTCHAR uni2219
ENCODING 8729
SWIDTH 272 0
DWIDTH 5 0
BBX 3 3 1 5
BITMAP
E0
E0
E0
ENDCHAR
STARTCHAR radical
ENCODING 8730
SWIDTH 548 0
DWIDTH 10 0
BBX 10 19 0 -3
BITMAP
0040
00C0
00C0
00C0
0080
0080
0080
0180
0180
3180
F100
3100
1900
1900
0F00
0F00
0E00
0600
0600
ENDCHAR
STARTCHAR infinity
ENCODING 8734
SWIDTH 712 0
DWIDTH 13 0
BBX 11 5 1 3
BITMAP
7BC0
CE60
C460
CE60
7BC0
ENDCHAR
STARTCHAR orthogonal
ENCODING 8735
SWIDTH 979 0
DWIDTH 18 0
BBX 11 12 3 0
BITMAP
C000
C000
C000
C000
C000
C000
C000
C000
C000
C000
FFE0
FFE0
ENDCHAR
STARTCHAR intersection
ENCODING 8745
SWIDTH 722 0
DWIDTH 13 0
BBX 11 13 1 0
BITMAP
0E00
3F80
71C0
60C0
E0C0
E0E0
E0E0
E0E0
E0E0
E0E0
E0E0
E0E0
E0E0
ENDCHAR
STARTCHAR integral
ENCODING 8747
SWIDTH 273 0
DWIDTH 5 0
BBX 5 19 0 -3
BITMAP
38
70
60
60
60
60
60
60
70
70
30
30
30
30
30
30
30
F0
C0
ENDCHAR
STARTCHAR approxequal
ENCODING 8776
SWIDTH 548 0
DWIDTH 10 0
BBX 9 8 0 0
BITMAP
3080
7F80
FF80
8300
3080
FF80
CF80
8200
ENDCHAR
STARTCHAR notequal
ENCODING 8800
SWIDTH 548 0
DWIDTH 10 0
BBX 8 9 1 0
BITMAP
06
FF
FF
08
18
FF
FF
20
60
ENDCHAR
STARTCHAR equivalence
ENCODING 8801
SWIDTH 478 0
DWIDTH 9 0
BBX 7 10 1 0
BITMAP
FE
FE
00
00
FE
FE
00
00
FE
FE
ENDCHAR
STARTCHAR lessequal
ENCODING 8804
SWIDTH 548 0
DWIDTH 10 0
BBX 8 13 1 0
BITMAP
01
07
1F
7C
F0
C0
F0
3C
0F
03
00
FF
FF
ENDCHAR
STARTCHAR greaterequal
ENCODING 8805
SWIDTH 548 0
DWIDTH 10 0
BBX 8 13 1 0
BITMAP
80
E0
F0
3C
0F
07
1F
3C
F0
C0
00
FF
FF
ENDCHAR
STARTCHAR house
ENCODING 8962
SWIDTH 600 0
DWIDTH 11 0
BBX 8 10 1 0
BITMAP
08
1C
36
63
C3
C1
C1
C1
FF
FF
ENDCHAR
STARTCHAR revlogicalnot
ENCODING 8976
SWIDTH 479 0
DWIDTH 9 0
BBX 7 6 1 3
BITMAP
FE
FE
FE
80
80
80
ENDCHAR
STARTCHAR integraltp
ENCODING 8992
SWIDTH 604 0
DWIDTH 11 0
BBX 4 21 4 -5
BITMAP
70
E0
C0
C0
C0
C0
C0
C0
C0
C0
C0
C0
C0
C0
C0
E0
E0
E0
60
60
60
ENDCHAR
STARTCHAR integralbt
ENCODING 8993
SWIDTH 604 0
DWIDTH 11 0
BBX 4 21 3 -5
BITMAP
60
60
60
60
60
60
60
60
60
60
60
60
70
70
30
30
30
30
30
E0
C0
ENDCHAR
STARTCHAR commaaccent
ENCODING 63171
SWIDTH 272 0
DWIDTH 5 0
BBX 3 4 1 -5
BITMAP
E0
E0
40
40
ENDCHAR
STARTCHAR uniFB01
ENCODING 64257
SWIDTH 500 0
DWIDTH 9 0
BBX 8 13 0 0
BITMAP
3B
7B
60
FB
FB
63
63
63
63
63
63
63
63
ENDCHAR
STARTCHAR uniFB02
ENCODING 64258
SWIDTH 500 0
DWIDTH 9 0
BBX 8 13 0 0
BITMAP
3B
7B
63
FB
FB
63
63
63
63
63
63
63
63
ENDCHAR
STARTCHAR .notdef
ENCODING 64261
SWIDTH 0 0
DWIDTH 0 0
BBX 1 1 0 0
BITMAP
00
ENDCHAR
ENDFONT
